<?xml version="1.0" standalone="no"?>
<!DOCTYPE svg PUBLIC "-//W3C//DTD SVG 20010904//EN"
 "http://www.w3.org/TR/2001/REC-SVG-20010904/DTD/svg10.dtd">
<svg version="1.0" xmlns="http://www.w3.org/2000/svg"
 width="655.000000pt" height="655.000000pt" viewBox="0 0 655.000000 655.000000"
 preserveAspectRatio="xMidYMid meet">
<metadata>
Created by potrace 1.11, written by Peter Selinger 2001-2013
</metadata>
<g transform="translate(0.000000,655.000000) scale(0.100000,-0.100000)"
fill="#000000" stroke="none">
<path d="M0 4825 c0 -762 2 -905 14 -905 17 0 41 28 32 37 -3 3 3 12 13 19 15
11 26 11 52 2 19 -6 37 -16 41 -22 5 -8 11 -7 20 2 11 11 8 17 -14 36 -31 24
-37 46 -13 46 8 0 15 4 15 10 0 12 29 2 53 -18 16 -14 20 -13 47 13 34 32 35
32 47 -13 l8 -33 20 46 c11 24 26 45 33 45 8 0 16 9 19 20 6 23 39 36 57 21
18 -15 51 10 43 32 -7 20 27 42 50 33 12 -5 14 -1 9 19 -4 14 -2 25 4 25 5 0
10 11 10 24 0 38 10 56 32 56 17 0 19 -4 13 -27 -3 -16 -8 -44 -10 -63 -2 -19
-8 -36 -14 -38 -6 -2 -11 -21 -11 -43 0 -21 -4 -39 -9 -39 -5 0 -10 -47 -10
-105 -1 -79 -6 -117 -21 -155 -24 -60 -24 -60 -7 -60 23 -1 48 -27 41 -45 -5
-11 -9 -13 -14 -5 -4 6 -10 -11 -14 -39 -8 -61 -21 -65 -36 -11 -6 22 -15 40
-20 40 -9 0 -7 -78 6 -214 3 -33 1 -68 -4 -80 -17 -34 -23 -83 -29 -208 -3
-81 -1 -118 6 -118 17 0 13 -27 -4 -34 -18 -7 -19 -29 -2 -56 10 -17 9 -22 -2
-29 -11 -7 -11 -25 -2 -102 7 -52 16 -143 20 -204 11 -147 18 -175 43 -175 17
0 19 5 14 28 -14 62 -19 132 -8 132 5 0 13 19 16 43 3 23 8 62 12 86 4 28 2
52 -7 68 -11 20 -11 26 0 32 11 7 17 24 20 54 2 19 23 4 36 -25 l14 -33 1 36
c0 19 -5 40 -11 46 -16 16 0 63 22 63 10 0 19 -3 19 -7 6 -217 11 -277 25
-293 8 -9 18 -39 21 -66 6 -46 5 -48 -9 -29 -9 11 -17 27 -17 35 0 8 -5 22
-10 30 -6 10 -9 -5 -8 -50 0 -36 -2 -104 -5 -152 -3 -52 -2 -88 4 -88 5 0 9 9
9 20 0 28 19 25 30 -5 5 -14 14 -25 20 -25 6 0 10 -24 9 -59 -1 -49 -4 -58
-17 -53 -12 4 -14 1 -7 -14 24 -57 41 -230 25 -249 -20 -24 -32 -17 -26 13 7
34 -18 130 -39 151 -14 14 -16 14 -14 1 2 -8 -1 -39 -5 -68 -6 -37 -4 -57 4
-67 10 -12 9 -16 -4 -21 -23 -9 -26 -3 -29 55 -1 28 -5 51 -9 51 -10 0 4 114
15 122 7 4 4 19 -9 43 l-19 36 -9 -58 c-12 -71 -13 -228 -3 -343 10 -120 16
-147 33 -165 9 -8 17 -21 18 -28 1 -6 5 -18 10 -25 4 -7 6 -16 2 -19 -7 -7 58
-136 78 -152 9 -8 16 -19 16 -27 0 -7 18 -32 40 -55 22 -23 40 -46 40 -51 0
-13 20 -30 52 -47 16 -8 28 -17 28 -21 0 -4 22 -17 50 -30 27 -13 50 -27 50
-32 0 -4 7 -8 15 -8 8 0 15 -4 15 -10 0 -5 9 -10 20 -10 11 0 20 -4 20 -10 0
-5 14 -10 30 -10 36 0 36 -3 9 -46 -11 -19 -18 -34 -15 -34 6 0 -26 -80 -53
-130 -10 -19 -22 -46 -26 -59 l-7 -23 40 22 c56 31 122 96 122 119 0 11 5 23
10 26 6 3 10 23 10 44 0 60 20 69 74 32 24 -17 49 -31 55 -31 6 0 11 -3 11 -6
0 -13 -35 -33 -57 -34 -29 0 -29 -3 2 -35 18 -17 37 -25 59 -25 l33 0 5 -71
c5 -71 17 -93 45 -82 15 6 18 63 3 63 -5 0 -10 20 -10 45 0 26 -8 59 -20 80
-25 44 -25 45 0 45 11 0 23 -7 26 -15 5 -12 17 -14 58 -9 28 4 56 10 61 15 6
4 17 4 25 -1 8 -6 28 -10 43 -10 15 0 30 -7 33 -15 4 -10 14 -13 28 -9 17 4
27 -1 40 -20 20 -31 30 -32 79 -7 20 10 37 15 37 10 0 -5 15 -8 33 -7 19 1 39
-2 46 -6 7 -5 22 1 35 13 l23 22 17 -59 c9 -32 16 -75 16 -95 0 -20 5 -37 10
-37 6 0 10 7 10 15 0 8 5 15 10 15 6 0 10 9 10 20 0 25 17 26 23 2 4 -14 6
-14 12 6 8 24 16 27 31 12 13 -13 54 -1 54 16 0 8 5 14 10 14 6 0 10 -5 10
-11 0 -11 24 -39 34 -39 3 0 6 5 6 11 0 11 24 39 34 39 3 0 6 -16 6 -36 0 -37
19 -115 30 -124 4 -3 10 -14 15 -25 8 -19 9 -19 12 2 3 13 17 32 33 43 l29 21
18 -28 c31 -49 39 -53 107 -53 l66 0 0 30 c0 28 2 30 40 30 30 0 40 -4 40 -16
0 -29 27 -44 79 -44 51 0 51 0 45 27 -4 16 -11 30 -16 31 -4 2 -8 20 -8 40 1
31 3 35 13 22 7 -8 21 -20 32 -26 22 -12 32 -28 40 -67 l5 -27 195 0 195 0 6
27 c4 15 16 36 26 47 10 11 18 25 18 31 0 17 80 96 91 89 15 -9 10 -34 -7 -34
-13 0 -14 -3 -5 -14 14 -17 -16 -89 -35 -82 -7 3 -10 -2 -7 -14 3 -10 0 -21
-6 -24 -6 -4 -11 -11 -11 -17 0 -5 622 -9 1640 -9 l1640 0 0 574 0 573 -89 42
c-49 22 -94 41 -99 41 -6 0 -30 10 -54 21 -23 12 -52 25 -63 29 -11 5 -59 26
-107 49 -47 23 -90 41 -96 41 -5 0 -44 18 -87 40 -43 22 -85 40 -94 40 -21 1
-51 24 -51 39 0 7 17 30 37 52 21 23 42 48 47 57 5 10 12 19 15 22 16 13 64
110 87 173 13 38 21 47 40 47 13 0 24 6 24 13 0 8 9 22 20 32 11 10 20 24 20
32 0 7 4 13 8 13 14 0 72 164 72 203 0 20 4 38 9 41 4 3 7 18 5 33 -2 16 -1
22 2 14 7 -14 28 -42 53 -67 15 -17 41 -2 41 22 0 8 5 14 11 14 7 0 10 19 7
53 -3 50 -2 52 22 52 33 0 36 38 3 43 -16 2 -23 11 -25 28 0 13 -1 29 -2 34
-2 22 20 13 32 -12 22 -46 92 -47 92 -2 0 8 10 14 24 14 28 0 43 17 28 32 -7
7 -7 20 0 39 12 34 23 37 39 8 9 -17 8 -23 -2 -30 -10 -6 -8 -9 9 -9 l22 0 0
1235 0 1235 -1917 0 -1917 0 40 -30 c29 -22 50 -30 82 -30 29 0 45 -5 49 -16
3 -9 12 -13 21 -9 8 3 19 0 24 -7 6 -9 7 -5 3 10 -3 12 -3 22 0 22 10 0 35
-28 35 -39 0 -6 5 -11 11 -11 8 0 7 -6 -2 -17 -13 -16 -13 -16 11 0 32 22 41
21 70 -5 13 -13 33 -21 43 -20 19 4 46 -23 47 -46 0 -13 -23 -12 -81 3 -18 4
-31 1 -42 -9 -11 -11 -17 -12 -19 -4 -6 17 -78 17 -78 1 0 -16 -36 -17 -45 -3
-5 8 -11 7 -21 -1 -13 -11 -29 -10 -66 6 -14 5 -18 2 -18 -14 0 -12 -4 -21 -8
-21 -11 0 -52 35 -52 44 0 10 -53 55 -66 56 -6 0 -17 11 -24 25 -7 14 -23 31
-36 40 -19 12 -24 12 -34 0 -16 -20 -42 -5 -70 40 -18 29 -28 35 -55 35 -19 0
-37 -4 -40 -10 -3 -5 0 -10 7 -10 8 0 34 -31 58 -70 25 -38 48 -70 53 -70 11
0 9 38 -3 45 -5 3 -10 13 -10 22 0 10 8 6 22 -13 13 -16 27 -34 33 -40 31 -35
45 -55 45 -65 0 -7 8 -19 18 -28 10 -9 25 -31 33 -48 8 -20 25 -37 41 -42 16
-6 28 -15 28 -21 0 -6 5 -8 11 -5 5 4 18 0 27 -8 39 -35 112 -32 112 4 0 21
-10 25 -26 9 -6 -6 -23 -1 -49 17 -58 38 -64 45 -35 41 20 -2 26 2 28 20 4 26
16 27 57 6 17 -8 52 -18 78 -21 26 -3 50 -10 53 -14 3 -5 18 -9 33 -9 15 0 32
-5 39 -12 6 -6 24 -12 39 -14 38 -3 96 -26 106 -41 4 -7 23 -13 42 -13 19 0
37 -4 40 -10 3 -5 24 -10 45 -10 28 0 45 -7 62 -24 13 -14 47 -50 77 -80 58
-61 58 -61 -29 -57 -26 1 -57 11 -72 22 -15 10 -32 19 -38 19 -5 0 -10 4 -10
9 0 5 -28 12 -62 15 -108 9 -158 18 -158 27 0 5 -10 9 -23 9 -22 0 -52 30 -84
85 -12 19 -12 19 -13 -7 0 -16 5 -28 13 -28 9 0 8 -3 -2 -9 -11 -7 -11 -9 0
-14 8 -3 4 -6 -8 -6 -16 -1 -23 -7 -23 -21 0 -27 -16 -25 -36 5 -10 16 -14 34
-9 54 7 31 -9 51 -27 33 -6 -6 -5 -17 4 -31 11 -18 11 -23 -2 -31 -13 -8 -13
-13 2 -40 14 -25 15 -30 3 -30 -8 0 -15 -4 -15 -10 0 -6 -24 -9 -55 -9 -44 1
-55 5 -55 19 0 16 -48 66 -56 58 -2 -3 6 -15 17 -27 12 -12 18 -25 15 -28 -8
-8 -76 26 -76 38 0 13 -46 59 -60 59 -20 0 -120 113 -120 136 0 12 -4 24 -8
26 -11 4 -162 203 -162 212 0 4 -6 14 -14 22 -21 20 -186 20 -186 0 0 -8 4
-17 9 -20 12 -8 18 -41 47 -233 7 -46 24 -59 24 -19 0 28 24 41 43 22 9 -10
19 -11 31 -4 21 12 45 -14 46 -48 0 -11 3 -24 7 -28 4 -4 9 -19 11 -34 2 -14
7 -32 13 -38 5 -6 6 -14 2 -17 -3 -4 -1 -7 5 -7 7 0 12 -7 12 -16 0 -12 7 -15
25 -12 14 3 30 -1 36 -8 6 -8 20 -14 31 -14 10 0 22 -8 25 -17 11 -28 30 -43
57 -45 14 -1 26 -8 26 -14 0 -16 25 -25 38 -12 9 9 68 -13 82 -31 15 -21 77
-57 92 -54 9 2 23 -6 31 -18 17 -24 37 -18 37 12 0 30 20 22 27 -11 5 -27 7
-28 18 -13 12 15 13 15 19 -3 5 -17 14 -21 56 -20 41 1 50 -2 50 -16 0 -21
-16 -32 -24 -16 -5 10 -7 10 -12 1 -7 -16 -23 -16 -54 0 -42 22 -70 27 -70 11
0 -7 -9 -18 -19 -24 -16 -8 -22 -6 -30 7 -8 15 -10 14 -16 -10 l-7 -28 -20 21
c-20 21 -38 19 -38 -5 0 -10 -8 -11 -40 -3 -23 6 -40 16 -40 24 0 8 -18 21
-40 30 -22 9 -40 22 -40 29 0 20 -21 30 -31 14 -7 -12 -9 -12 -9 0 0 7 -12 24
-27 37 -22 19 -29 21 -31 9 -4 -17 -22 -21 -22 -5 0 12 -57 13 -64 1 -3 -4 -2
-11 2 -15 4 -4 12 -35 17 -69 8 -49 15 -64 33 -72 12 -5 22 -13 22 -17 0 -5 7
-8 15 -8 8 0 15 -4 15 -10 0 -5 9 -10 20 -10 12 0 31 -6 43 -14 12 -7 38 -16
58 -19 34 -5 36 -4 31 21 -5 26 -5 26 13 9 10 -10 24 -16 31 -13 8 3 11 0 7
-10 -3 -7 -1 -14 5 -14 6 0 12 6 15 13 4 10 7 10 18 0 7 -7 21 -13 31 -13 10
0 18 -5 18 -10 0 -6 8 -10 18 -8 12 2 16 -3 15 -19 -2 -15 3 -23 12 -23 8 0
15 -4 15 -10 0 -5 5 -10 10 -10 6 0 3 12 -7 27 -12 19 -14 28 -6 30 8 3 10 15
6 34 -4 22 -2 29 10 29 9 0 18 -4 21 -9 3 -5 15 -7 27 -4 13 4 17 8 9 13 -8 5
-7 9 4 13 10 4 17 -1 22 -15 6 -19 8 -19 15 -5 10 17 34 13 56 -9 10 -10 10
-13 0 -17 -6 -3 34 -6 90 -6 82 -1 101 2 97 12 -4 11 12 13 78 9 46 -2 85 -9
86 -13 2 -5 19 -9 38 -9 24 0 34 -5 34 -15 0 -21 -30 -31 -40 -14 -7 11 -13 8
-29 -10 -11 -13 -18 -28 -15 -32 3 -5 0 -9 -5 -9 -6 0 -11 5 -11 10 0 17 -21
11 -40 -12 -15 -19 -21 -21 -31 -10 -7 6 -19 12 -26 12 -13 0 -12 -65 2 -142
7 -34 6 -38 -14 -38 -18 0 -21 -6 -22 -40 -1 -22 -2 -46 -3 -52 -1 -7 5 -12
12 -10 6 1 12 -5 12 -14 0 -10 -6 -14 -15 -11 -21 9 -24 -3 -15 -51 4 -26 4
-45 -2 -48 -18 -11 -28 19 -28 84 0 70 -7 82 -59 100 -43 15 -44 15 -38 -3 8
-20 -8 -28 -22 -11 -7 8 -22 11 -38 8 -25 -5 -25 -6 -8 -18 18 -14 18 -14 -1
-15 -10 -1 -22 -1 -26 0 -14 2 -8 -46 6 -58 13 -11 11 -49 -3 -61 -18 -15 -31
-54 -25 -73 6 -20 5 -21 -12 -7 -10 8 -27 23 -36 34 -11 11 -25 16 -38 13 -13
-3 -20 0 -20 8 0 8 10 15 23 17 22 3 22 3 -5 29 -16 15 -28 31 -28 37 0 15
-25 22 -41 11 -12 -8 -11 -12 4 -23 13 -10 17 -24 15 -48 -2 -27 -7 -33 -26
-32 -26 1 -37 -29 -29 -79 5 -37 -7 -82 -16 -57 -3 8 -8 24 -10 35 -5 19 -5
19 -12 -2 -8 -26 -10 -27 -35 -13 -15 8 -20 6 -25 -9 -3 -11 -15 -23 -25 -26
-11 -4 -27 -13 -36 -22 -13 -14 -17 -14 -24 -2 -10 15 -12 14 -28 -16 -6 -11
-12 -14 -12 -7 0 6 -8 12 -17 12 -17 1 -83 76 -83 96 -1 15 -50 46 -68 42 -12
-3 -17 -13 -16 -38 1 -44 52 -220 70 -241 8 -8 14 -25 14 -37 0 -12 8 -30 18
-40 21 -21 30 -92 11 -92 -7 0 0 -13 15 -28 23 -25 25 -30 11 -42 -20 -17 -9
-32 23 -30 15 1 31 2 36 1 11 -1 -24 -41 -36 -41 -19 0 -34 -25 -30 -49 2 -18
-4 -33 -22 -50 -31 -29 -33 -41 -7 -41 11 0 27 -10 35 -21 11 -17 21 -20 41
-15 l26 7 -20 -23 c-12 -12 -21 -28 -21 -35 0 -7 -4 -13 -10 -13 -5 0 -10 -4
-10 -10 0 -5 9 -10 20 -10 22 0 26 -20 8 -38 -10 -10 -10 -15 2 -22 12 -8 13
-13 3 -30 -15 -23 -18 -196 -4 -204 9 -6 34 -132 30 -152 -5 -26 5 -29 87 -25
56 2 84 0 80 -7 -3 -5 0 -15 8 -21 10 -9 16 -8 26 4 10 12 16 13 26 4 8 -6 14
-18 14 -25 0 -8 6 -14 14 -14 7 0 25 -9 39 -20 20 -16 27 -17 36 -6 6 7 8 16
4 20 -4 3 14 5 39 3 33 -3 52 1 69 14 l24 19 -23 6 c-15 4 -21 12 -18 21 3 8
6 17 6 19 0 2 11 4 24 4 16 0 27 -7 31 -19 3 -12 14 -19 25 -18 24 2 25 4 1
42 -15 26 -16 32 -4 44 8 7 29 11 49 9 23 -3 34 0 34 9 0 7 -4 13 -10 13 -5 0
-10 9 -10 20 0 11 -4 20 -10 20 -5 0 -10 9 -10 20 0 11 4 20 8 20 15 0 87 -70
84 -82 -2 -6 4 -8 12 -5 8 3 16 2 18 -3 2 -5 13 -7 26 -3 19 5 22 10 17 32
-10 40 -27 51 -19 13 4 -21 3 -32 -5 -32 -6 0 -11 5 -11 10 0 6 -16 25 -35 43
-40 36 -44 60 -15 84 11 10 20 23 20 31 0 7 5 10 10 7 6 -3 10 -2 10 3 0 12
-29 36 -63 50 -16 7 -31 21 -34 32 -3 11 -9 20 -14 20 -5 0 -9 14 -9 31 0 17
-4 28 -10 24 -5 -3 -10 -1 -10 5 0 6 -4 8 -10 5 -6 -3 -10 1 -10 9 0 9 9 16
21 16 12 0 17 4 14 11 -4 6 -13 8 -21 5 -11 -4 -14 4 -14 34 0 44 4 48 28 24
14 -15 16 -15 24 5 5 13 15 21 25 19 10 -2 17 2 16 9 -2 9 4 10 23 3 14 -6 43
-10 64 -10 29 0 43 -6 55 -22 12 -16 19 -19 22 -10 7 18 27 15 41 -8 7 -11 23
-20 37 -20 18 0 25 -5 25 -20 0 -11 -7 -20 -15 -20 -8 0 -15 -4 -15 -10 0 -5
7 -10 15 -10 8 0 15 5 15 10 0 15 30 12 30 -2 1 -8 6 -6 14 5 17 22 26 22 26
0 0 -10 11 -31 25 -47 21 -24 26 -26 38 -14 8 7 16 20 20 28 4 11 7 10 12 -7
4 -12 16 -25 26 -28 22 -7 61 -59 52 -69 -3 -3 -17 -6 -31 -6 -19 0 -22 -3
-13 -13 6 -8 13 -36 16 -62 5 -53 10 -61 39 -67 24 -4 34 -28 12 -28 -13 0
-14 -4 -4 -25 9 -21 8 -29 -8 -46 l-19 -22 33 6 c34 7 38 0 23 -38 -5 -11 -4
-25 1 -32 8 -10 3 -13 -21 -13 -17 0 -31 5 -31 10 0 6 -8 10 -18 10 -10 0 -23
5 -28 10 -12 12 -44 3 -44 -11 0 -5 -4 -9 -10 -9 -5 0 -10 6 -10 13 0 8 -6 14
-14 14 -19 0 8 -66 37 -89 18 -15 20 -19 8 -27 -17 -11 -51 3 -51 21 0 15 -48
58 -66 58 -7 0 -14 5 -14 10 0 6 -4 10 -10 10 -5 0 -10 -7 -10 -15 0 -8 -3
-15 -6 -15 -3 0 -12 7 -20 15 -19 18 -47 20 -41 3 2 -7 10 -12 17 -10 10 2 10
-1 -1 -15 -8 -10 -18 -21 -23 -25 -11 -7 -55 22 -56 37 0 15 -82 6 -101 -12
-14 -12 -17 -12 -22 0 -9 23 -56 27 -67 6 -8 -14 -20 -17 -50 -15 -22 2 -40
-1 -40 -5 0 -5 -7 -9 -15 -9 -8 0 -15 -9 -15 -21 0 -11 -5 -17 -10 -14 -6 3
-13 -1 -17 -10 -7 -20 17 -39 31 -25 17 17 26 11 26 -17 -1 -24 -2 -26 -13
-12 -19 25 -47 3 -34 -25 15 -32 57 -62 66 -47 9 14 41 4 41 -14 0 -6 9 -20
20 -30 11 -10 20 -26 20 -37 0 -21 -15 -24 -24 -5 -5 10 -7 9 -12 0 -8 -17
-21 -16 -28 2 -3 8 2 21 10 30 14 13 13 15 -4 15 -27 0 -35 -44 -12 -65 9 -8
22 -15 28 -15 7 0 12 -4 12 -10 0 -5 7 -10 16 -10 8 0 12 -5 9 -10 -3 -5 -26
-10 -51 -10 -43 0 -84 -24 -84 -51 0 -5 -4 -7 -10 -4 -5 3 -10 -1 -10 -10 0
-11 -6 -15 -19 -10 -12 4 -21 0 -25 -11 -5 -13 -9 -14 -21 -4 -10 9 -15 9 -15
1 0 -6 -10 -10 -22 -9 -13 1 -36 -7 -53 -18 l-29 -19 53 -3 c29 -2 58 1 65 7
6 5 39 12 72 14 34 2 67 8 73 12 15 9 71 -44 64 -61 -2 -7 0 -15 6 -19 8 -4 8
-12 1 -25 -7 -13 -6 -19 6 -24 25 -9 34 -7 28 7 -3 8 2 20 12 27 13 12 17 12
25 -2 5 -10 18 -14 36 -12 16 2 21 1 13 -3 -8 -3 -22 -16 -31 -27 -9 -12 -40
-32 -68 -46 -28 -14 -51 -28 -51 -32 0 -5 -10 -8 -22 -8 -25 0 -93 -22 -104
-33 -4 -4 -18 -7 -31 -7 -12 0 -23 -4 -23 -10 0 -5 -15 -10 -34 -10 -19 0 -37
-4 -40 -8 -3 -5 -38 -10 -77 -11 -40 -1 -80 -6 -90 -12 -10 -5 -29 -9 -43 -9
-14 0 -26 -4 -26 -10 0 -5 -15 -10 -32 -10 -46 -1 -140 -24 -132 -33 4 -4 22
-7 40 -7 18 0 36 -5 39 -10 4 -6 11 -7 17 -4 8 5 88 19 148 26 8 1 24 12 36
25 20 22 54 32 54 15 0 -19 -33 -52 -52 -52 -18 0 -20 -4 -15 -40 3 -26 1 -39
-6 -37 -6 1 -13 -8 -15 -20 -4 -27 -15 -29 -36 -8 -18 19 -26 19 -26 2 0 -8
-9 -22 -20 -32 -11 -10 -20 -26 -20 -35 0 -9 -3 -20 -7 -24 -4 -3 -8 -15 -10
-26 -4 -24 -63 -120 -63 -102 0 14 -46 16 -55 2 -10 -16 -25 -11 -25 8 0 10
-3 22 -7 25 -9 10 -43 -23 -43 -42 -1 -13 -3 -13 -15 3 -21 27 -37 10 -31 -33
7 -44 -18 -87 -35 -61 -7 11 -8 8 -4 -11 5 -20 0 -33 -18 -51 -23 -23 -25 -23
-36 -7 -6 10 -16 16 -23 14 -18 -7 -47 15 -31 22 15 6 17 39 3 48 -12 8 5 43
33 67 12 11 20 30 19 46 0 18 7 33 19 40 16 10 19 9 19 -3 0 -8 5 -15 10 -15
18 0 10 29 -10 35 -11 3 -20 13 -20 21 0 8 -5 14 -11 14 -5 0 -8 -4 -5 -9 3
-5 -1 -14 -9 -21 -12 -10 -15 -9 -15 5 0 14 -3 15 -15 5 -19 -15 -32 -6 -18
12 18 24 22 59 7 65 -9 3 -14 20 -14 48 0 24 -4 46 -8 49 -5 3 -9 22 -10 43
-1 21 -6 39 -12 41 -14 5 -12 59 2 66 11 5 11 7 0 12 -6 3 -12 14 -12 25 0 19
15 24 55 20 26 -2 65 19 65 36 0 7 4 13 8 13 5 0 20 9 33 21 13 11 35 29 49
39 20 15 23 21 12 31 -10 11 -19 11 -47 0 -37 -13 -55 -9 -55 15 0 24 -24 94
-32 94 -5 0 -8 16 -8 35 0 19 -4 35 -10 35 -5 0 -10 13 -10 29 0 17 -4 33 -10
36 -6 4 -10 -8 -10 -27 0 -19 -6 -40 -12 -46 -10 -10 -10 -15 1 -21 22 -14 4
-28 -28 -23 -32 4 -34 2 -45 -50 -4 -16 -13 -28 -21 -28 -8 0 -24 -9 -34 -19
-12 -12 -22 -16 -29 -9 -11 11 -42 -16 -42 -37 0 -20 21 -30 31 -14 6 11 9 8
9 -8 0 -13 -12 -30 -30 -43 -16 -12 -30 -28 -30 -36 0 -11 -27 -60 -57 -103
-9 -13 -12 10 -4 31 7 18 5 33 -5 53 -8 15 -14 33 -14 41 0 7 -9 29 -20 49
-11 19 -29 51 -40 70 -11 20 -20 44 -20 55 0 10 -4 22 -10 25 -5 3 -10 19 -10
36 0 16 -4 29 -10 29 -5 0 -10 9 -10 20 0 11 -4 20 -10 20 -5 0 -10 11 -10 24
0 14 -4 28 -10 31 -5 3 -10 19 -10 35 0 16 -4 32 -10 35 -5 3 -10 15 -10 27 0
11 -8 32 -18 46 -10 15 -24 47 -32 72 -7 25 -20 65 -28 90 -27 85 -45 155 -67
275 -25 136 -31 160 -48 195 -9 18 -17 46 -17 62 0 15 -4 28 -10 28 -5 0 -10
-21 -11 -47 0 -36 -2 -43 -9 -27 -4 11 -4 42 1 69 9 47 1 101 -22 146 -5 11
-13 28 -19 39 -5 11 -10 28 -10 39 0 21 -37 98 -57 119 -7 7 -13 17 -13 21 0
5 -20 28 -44 53 -43 42 -45 46 -46 108 -2 95 -1 100 16 100 8 0 13 4 10 8 -2
4 0 14 5 22 8 11 9 7 6 -15 -4 -24 1 -36 26 -59 27 -26 30 -27 25 -8 -5 16 -2
22 11 22 9 0 22 -5 27 -10 11 -11 94 44 94 62 0 5 -10 19 -22 30 l-23 19 43
-5 c25 -4 42 -2 42 4 0 5 -6 10 -14 10 -21 0 -26 22 -9 41 21 24 -9 69 -66 97
-71 34 -140 25 -102 -13 6 -6 11 -31 13 -57 2 -27 6 -48 11 -48 4 0 7 -6 7
-13 0 -7 9 -19 20 -27 19 -14 19 -14 0 -27 -25 -18 -43 -7 -38 22 4 16 1 22
-9 18 -7 -3 -13 2 -13 11 0 18 -11 21 -27 5 -7 -7 -12 -6 -17 6 -3 9 0 18 7
21 16 6 23 144 7 144 -5 0 -10 5 -10 11 0 6 9 8 20 4 17 -5 20 -2 20 21 0 30
58 154 72 154 4 0 8 7 8 16 0 19 34 52 66 64 12 5 29 23 38 40 13 27 13 31 1
26 -8 -3 -17 -1 -21 5 -4 7 -10 6 -19 -1 -18 -15 -26 9 -11 33 8 13 8 20 -4
27 -20 13 -30 3 -30 -29 0 -27 -51 -91 -72 -91 -4 0 -8 -14 -8 -31 0 -26 2
-29 14 -20 11 9 16 9 21 0 10 -15 -15 -30 -37 -23 -12 3 -18 0 -18 -10 0 -9
-7 -16 -15 -16 -8 0 -15 -5 -15 -11 0 -6 6 -9 14 -6 8 3 17 -1 20 -9 4 -11 1
-14 -13 -9 -15 5 -21 0 -26 -25 -5 -23 -10 -28 -19 -21 -7 6 -16 8 -19 4 -6
-5 -11 18 -9 38 1 4 -8 15 -18 24 -24 22 -25 41 -4 53 10 6 14 14 9 21 -10 18
-52 5 -79 -24 -27 -29 -36 -31 -36 -10 0 8 4 15 9 15 5 0 13 10 17 22 3 12 13
28 20 36 8 7 14 25 14 40 l-1 27 -24 -27 c-13 -16 -30 -28 -38 -28 -8 0 -17
-10 -20 -22 -3 -13 -9 -33 -12 -45 -6 -18 -3 -23 9 -23 10 0 14 -5 11 -10 -4
-7 -13 -7 -25 0 -15 8 -21 6 -30 -9 -13 -24 -13 -58 -1 -66 6 -3 13 -26 17
-50 5 -34 11 -45 25 -45 10 0 21 -4 24 -10 3 -5 1 -10 -4 -10 -6 0 -11 -4 -11
-10 0 -5 6 -10 13 -10 7 0 23 -11 35 -25 22 -25 55 -25 46 0 -10 25 17 27 39
3 33 -36 48 -92 31 -115 -13 -17 -13 -17 -14 0 0 9 -6 17 -14 17 -11 0 -14 11
-12 40 2 22 -1 43 -5 46 -5 3 -9 -13 -9 -35 0 -42 17 -91 32 -91 4 0 8 -7 8
-15 0 -8 -4 -15 -10 -15 -13 0 -50 37 -50 50 0 15 -33 45 -50 45 -9 0 -16 11
-18 28 -2 15 -7 27 -12 27 -5 0 -10 10 -12 22 -2 12 -9 23 -15 25 -12 4 0 -36
28 -93 14 -27 8 -70 -9 -66 -7 1 -15 -5 -18 -13 -4 -8 -10 -15 -15 -15 -16 0
-10 29 9 40 12 8 14 13 4 17 -10 4 -10 8 -1 20 8 9 9 17 3 21 -6 4 -13 15 -17
25 -7 20 -37 23 -56 5 -7 -7 -4 3 8 22 21 35 28 70 13 70 -4 0 -8 38 -9 85 0
47 3 85 7 85 5 0 16 18 26 40 10 22 21 40 25 40 4 0 5 8 2 18 -3 14 5 23 34
37 45 21 65 40 87 83 9 18 23 32 31 32 7 0 16 8 18 18 4 14 6 14 12 -5 10 -30
22 -29 52 4 23 24 23 27 8 36 -15 8 -15 10 4 24 21 14 31 40 11 28 -5 -3 -10
-1 -10 4 0 20 -18 11 -25 -11 -8 -22 -8 -22 -12 4 -4 24 -6 26 -24 15 -10 -6
-19 -22 -19 -34 0 -12 -5 -25 -10 -28 -5 -3 -10 -15 -10 -26 0 -56 -43 25 -80
151 -12 41 -26 90 -32 108 -15 52 -21 135 -14 205 6 53 11 66 31 77 12 7 31
31 41 54 16 36 49 91 64 106 3 3 11 17 19 33 8 15 17 27 21 27 11 0 44 33 58
58 l12 22 -645 0 -645 0 0 -905z m3230 759 c0 -21 -17 -17 -23 5 -3 14 -1 18
9 14 8 -3 14 -11 14 -19z m100 -24 c0 -5 -12 -10 -26 -10 -14 0 -23 4 -19 10
3 6 15 10 26 10 10 0 19 -4 19 -10z m-450 -439 c1 -17 18 -31 34 -25 16 6 15
8 -4 26 -13 12 -18 24 -13 29 14 14 73 -1 67 -16 -3 -8 9 -14 35 -19 22 -3 44
-14 50 -24 6 -10 21 -17 38 -17 22 0 29 -5 32 -25 3 -22 4 -23 10 -6 6 16 11
13 29 -22 12 -23 17 -44 12 -47 -5 -3 -12 1 -17 8 -4 7 -19 13 -33 13 -14 0
-24 5 -23 10 1 6 -14 10 -33 9 -20 0 -38 3 -40 7 -3 4 -12 8 -21 8 -9 0 -27
10 -39 21 -13 12 -34 22 -48 22 -15 0 -26 2 -26 6 0 4 -16 15 -35 25 -33 18
-43 35 -29 49 7 6 54 -21 54 -32z m710 24 c18 -22 7 -28 -23 -12 -15 8 -24 17
-20 20 11 12 30 8 43 -8z m-287 -82 c20 -10 27 -20 25 -36 -2 -18 -9 -22 -36
-19 -17 1 -32 -2 -32 -8 0 -15 -32 -12 -54 5 -11 8 -16 15 -11 15 5 0 0 7 -11
15 -11 8 -14 15 -6 15 6 0 12 9 12 21 0 19 4 20 43 14 23 -4 55 -14 70 -22z
m376 -9 c-6 -7 3 -27 30 -60 49 -62 59 -113 34 -166 -10 -21 -22 -38 -27 -38
-12 0 3 52 20 72 11 11 13 21 6 35 -5 10 -15 30 -23 46 -7 15 -18 27 -26 27
-7 0 -13 9 -13 19 0 28 -28 34 -41 9 -8 -14 -8 -23 -1 -27 6 -3 9 -27 7 -51
-2 -25 -4 -48 -4 -52 -2 -18 -21 -6 -21 13 0 11 -7 27 -15 35 -18 18 -10 72
16 96 9 10 15 25 13 35 -3 12 3 22 18 28 26 12 43 -2 27 -21z m-199 -34 c0 -5
-2 -10 -4 -10 -3 0 -8 5 -11 10 -3 6 -1 10 4 10 6 0 11 -4 11 -10z m42 -68
c12 -9 18 -26 18 -48 0 -30 4 -37 30 -47 33 -12 39 -39 16 -63 -11 -11 -17
-11 -22 -2 -4 6 -2 14 4 16 18 6 15 22 -4 22 -18 0 -37 -17 -47 -42 -3 -10
-13 -18 -22 -18 -8 0 -15 -9 -15 -20 0 -11 -4 -20 -10 -20 -5 0 -10 9 -10 20
0 11 -4 20 -10 20 -5 0 -10 9 -10 20 0 13 7 20 20 20 13 0 18 5 14 15 -5 11
-2 13 10 9 9 -3 16 -1 16 5 0 15 -37 14 -44 -1 -3 -7 -3 -3 0 10 4 18 1 22
-20 22 -40 0 -35 35 7 45 22 5 26 9 15 12 -10 2 -18 11 -18 18 0 18 53 45 59
30 2 -5 12 -16 23 -23z m58 28 c0 -5 -4 -10 -10 -10 -5 0 -10 5 -10 10 0 6 5
10 10 10 6 0 10 -4 10 -10z m-457 -17 c-7 -2 -19 -2 -25 0 -7 3 -2 5 12 5 14
0 19 -2 13 -5z m-236 -29 c-9 -9 -28 6 -21 18 4 6 10 6 17 -1 6 -6 8 -13 4
-17z m343 6 c0 -5 -4 -10 -9 -10 -6 0 -13 5 -16 10 -3 6 1 10 9 10 9 0 16 -4
16 -10z m144 -27 c4 -9 1 -20 -6 -24 -12 -7 -25 9 -27 34 -2 14 27 7 33 -10z
m-2134 -7 c0 -11 -19 -15 -25 -6 -3 5 1 10 9 10 9 0 16 -2 16 -4z m-466 -92
c-15 -30 -15 -37 -3 -45 11 -7 10 -11 -8 -24 -28 -20 -30 -45 -3 -45 11 0 20
-4 20 -9 0 -5 -9 -7 -21 -4 -12 4 -25 0 -30 -8 -6 -10 -9 -8 -10 11 -3 35 -2
43 6 63 5 12 2 17 -9 17 -9 0 -16 4 -16 10 0 5 7 7 15 4 21 -8 30 22 17 52
-13 27 -13 28 22 14 23 -8 26 -7 27 13 1 16 3 17 6 5 2 -10 -3 -34 -13 -54z
m66 -20 c0 -15 -23 -44 -34 -44 -11 0 -6 31 7 45 16 19 27 19 27 -1z m2740
-54 c0 -5 -4 -10 -10 -10 -5 0 -10 5 -10 10 0 6 5 10 10 10 6 0 10 -4 10 -10z
m-120 -21 c0 -5 -4 -9 -10 -9 -5 0 -10 7 -10 16 0 8 5 12 10 9 6 -3 10 -10 10
-16z m-190 -16 c0 -20 -3 -24 -11 -16 -7 7 -9 19 -6 27 10 24 17 19 17 -11z
m270 1 c0 -8 -4 -12 -10 -9 -5 3 -10 -3 -10 -14 0 -12 -4 -21 -10 -21 -5 0
-10 -8 -10 -18 0 -11 -9 -27 -20 -37 -11 -10 -20 -31 -20 -47 0 -19 -4 -28
-12 -25 -7 2 -13 9 -12 15 1 7 2 26 3 42 1 23 6 30 21 30 11 0 20 7 20 15 0 8
-4 15 -10 15 -14 0 -12 29 3 44 19 19 51 35 59 30 5 -3 8 -12 8 -20z m183 -33
c-5 -3 -13 -17 -19 -30 -6 -14 -13 -21 -16 -15 -3 5 1 26 10 46 13 30 18 34
25 22 6 -10 6 -19 0 -23z m-3048 -72 c0 -44 -2 -48 -20 -43 -30 9 -32 14 -12
29 10 7 15 19 11 29 -7 19 3 52 14 42 4 -4 7 -30 7 -57z m75 27 c0 -7 -6 -26
-14 -40 -16 -31 -27 -15 -19 27 5 27 33 38 33 13z m2507 -81 c-24 -31 -37 -41
-40 -31 -3 8 1 20 9 26 8 7 14 18 14 25 0 7 9 15 20 18 12 3 21 14 21 29 2 23
2 23 6 1 3 -15 -8 -38 -30 -68z m-2107 19 c0 -8 -4 -14 -10 -14 -5 0 -10 9
-10 21 0 11 5 17 10 14 6 -3 10 -13 10 -21z m-540 -11 c0 -21 -3 -24 -9 -14
-5 8 -7 20 -4 28 8 21 13 15 13 -14z m2684 -27 c-5 -13 -34 -31 -34 -22 0 16
14 36 26 36 7 0 11 -6 8 -14z m241 4 c-6 -10 -40 -8 -51 3 -4 4 7 7 25 7 19 0
30 -4 26 -10z m-445 -16 c0 -10 -28 -34 -39 -34 -16 0 -13 11 7 26 18 14 32
18 32 8z m217 -36 c-3 -8 -6 -5 -6 6 -1 11 2 17 5 13 3 -3 4 -12 1 -19z m-323
-13 c-4 -8 -10 -12 -15 -9 -14 8 -10 24 6 24 9 0 12 -6 9 -15z m106 -16 c0 -5
-10 -9 -21 -9 -18 0 -19 2 -9 15 12 15 30 12 30 -6z m-2458 -12 c-2 -9 2 -17
8 -17 5 0 10 -5 10 -11 0 -6 -6 -9 -14 -6 -9 4 -16 -3 -20 -19 -4 -15 -14 -24
-27 -24 -11 0 -18 3 -16 8 3 4 10 26 17 50 8 32 15 42 28 40 10 -2 16 -11 14
-21z m558 17 c0 -7 -27 -34 -34 -34 -3 0 -6 9 -6 20 0 13 7 20 20 20 11 0 20
-3 20 -6z m1840 -38 c0 -62 -17 -67 -22 -6 -2 35 1 50 10 50 8 0 12 -16 12
-44z m243 4 c-7 -28 -13 -25 -13 6 0 14 4 23 9 20 5 -3 7 -15 4 -26z m-2593
10 c0 -5 -4 -10 -10 -10 -5 0 -10 5 -10 10 0 6 5 10 10 10 6 0 10 -4 10 -10z
m45 -19 c-3 -6 -11 -11 -17 -11 -6 0 -6 6 2 15 14 17 26 13 15 -4z m380 -1 c3
-5 -1 -10 -9 -10 -9 0 -16 5 -16 10 0 6 4 10 9 10 6 0 13 -4 16 -10z m-590
-110 c-4 -37 -14 -52 -27 -44 -6 4 -6 10 1 17 6 6 11 24 11 40 0 15 4 26 9 22
6 -3 8 -19 6 -35z m132 -12 c-3 -8 -6 -5 -6 6 -1 11 2 17 5 13 3 -3 4 -12 1
-19z m4103 8 c0 -8 3 -23 7 -33 6 -17 6 -17 -10 -1 -19 18 -23 48 -7 48 6 0
10 -6 10 -14z m-3890 -6 c0 -5 -4 -10 -10 -10 -5 0 -10 5 -10 10 0 6 5 10 10
10 6 0 10 -4 10 -10z m-67 -31 c-6 -6 -17 -8 -24 -3 -9 5 -8 9 7 14 23 9 31 3
17 -11z m147 -67 c0 -12 -3 -12 -15 -2 -8 7 -15 13 -15 15 0 1 7 2 15 2 8 0
15 -7 15 -15z m164 3 c-4 -8 -8 -15 -10 -15 -2 0 -4 7 -4 15 0 8 4 15 10 15 5
0 7 -7 4 -15z m123 9 c-3 -3 -12 -4 -19 -1 -8 3 -5 6 6 6 11 1 17 -2 13 -5z
m1923 -45 c0 -45 4 -55 35 -86 19 -19 35 -37 35 -39 0 -3 -43 -3 -96 -2 -79 2
-99 6 -108 20 -8 13 -8 23 2 38 6 11 12 27 12 36 0 18 43 60 75 74 39 17 45
12 45 -41z m283 40 c30 -16 37 -30 30 -59 -7 -28 -20 -40 -44 -40 -12 0 -16
11 -17 43 -1 23 -7 44 -12 45 -16 6 -12 22 6 22 8 0 25 -5 37 -11z m-2695 -29
c-14 -22 -24 -19 -15 5 4 8 11 15 17 15 6 0 6 -7 -2 -20z m339 -15 c-4 -8 -11
-15 -17 -15 -7 0 -7 6 0 21 13 23 26 19 17 -6z m2153 -15 c0 -24 -26 -38 -42
-22 -16 16 -2 42 22 42 13 0 20 -7 20 -20z m-590 0 c0 -5 -2 -10 -4 -10 -3 0
-8 5 -11 10 -3 6 -1 10 4 10 6 0 11 -4 11 -10z m-2001 -227 c-13 -35 -36 -18
-42 30 -2 23 1 56 8 72 14 34 15 38 16 63 1 9 7 -19 14 -63 7 -45 8 -90 4
-102z m482 104 c-13 -13 -26 -3 -16 12 3 6 11 8 17 5 6 -4 6 -10 -1 -17z
m-257 -45 c-16 -33 -19 -34 -22 -14 -2 12 4 29 12 38 9 8 16 21 17 27 0 8 2 8
6 -1 3 -7 -3 -29 -13 -50z m2447 20 c28 -11 69 -6 69 9 0 14 30 10 46 -6 15
-15 48 -10 38 6 -3 5 0 9 5 9 6 0 11 -4 11 -10 0 -14 37 -13 42 1 3 8 10 8 26
-2 14 -9 20 -20 17 -31 -7 -21 14 -35 26 -17 6 10 9 5 9 -17 0 -17 7 -45 16
-62 12 -26 22 -32 47 -33 32 0 32 0 7 -11 -21 -9 -22 -12 -7 -15 9 -3 17 -9
17 -15 0 -7 15 -9 40 -5 44 6 47 3 25 -19 -11 -12 -12 -20 -4 -35 5 -11 13
-18 17 -15 22 14 80 -77 63 -98 -6 -7 -9 -21 -5 -30 7 -19 -7 -21 -24 -4 -6 6
-15 8 -19 3 -5 -4 -2 -10 5 -12 14 -5 17 -33 3 -33 -5 0 -11 6 -13 12 -3 7
-11 13 -19 14 -8 0 -27 2 -42 2 -25 2 -27 5 -21 24 6 21 5 22 -12 8 -10 -8
-21 -15 -23 -17 -7 -4 28 -33 41 -33 8 0 14 -9 15 -20 2 -21 -13 -26 -36 -11
-10 7 -19 4 -27 -7 -12 -16 -13 -16 -19 1 -9 21 -25 23 -25 2 0 -8 -5 -15 -11
-15 -6 0 -9 6 -6 14 4 10 -2 16 -16 18 -13 2 -24 13 -28 28 -5 21 -7 22 -14 8
-8 -21 -35 -24 -35 -5 0 8 -3 8 -9 -2 -8 -12 -12 -12 -26 3 -10 9 -24 15 -32
12 -7 -3 -16 1 -19 9 -4 8 -14 15 -24 15 -10 0 -32 11 -48 25 -19 16 -32 21
-39 14 -11 -11 -63 -2 -63 11 0 4 -17 10 -38 13 -27 5 -46 17 -70 46 -18 22
-41 42 -50 45 -9 3 -22 16 -27 28 -6 12 -19 26 -29 32 -46 25 -93 87 -81 106
3 5 1 11 -5 15 -41 26 32 45 164 44 71 0 123 4 129 10 12 12 50 9 88 -7z
m1630 -38 c12 -14 11 -16 -5 -13 -11 2 -21 10 -24 17 -5 17 13 15 29 -4z
m-4253 -66 c0 -24 -7 -51 -13 -61 -12 -17 -13 -16 -17 5 -3 13 -9 30 -12 39
-5 11 1 24 15 38 13 12 24 21 26 21 1 0 2 -19 1 -42z m433 -60 c-19 -75 -30
-92 -31 -45 0 50 22 119 34 107 6 -6 5 -29 -3 -62z m3806 20 c-3 -8 -6 -5 -6
6 -1 11 2 17 5 13 3 -3 4 -12 1 -19z m273 13 c0 -6 -4 -13 -10 -16 -5 -3 -10
1 -10 9 0 9 5 16 10 16 6 0 10 -4 10 -9z m-4427 -37 c-4 -12 -8 -13 -14 -3 -9
15 -2 32 11 24 5 -3 6 -13 3 -21z m-135 -3 c13 -8 18 -58 21 -193 1 -59 26
-67 37 -13 3 19 10 38 15 41 5 3 9 12 9 20 0 17 -26 19 -33 2 -4 -9 -6 -8 -6
2 0 8 8 26 19 40 11 14 20 40 20 59 0 19 3 31 7 27 10 -9 4 -155 -7 -176 -4
-8 -7 -42 -6 -74 2 -39 -2 -62 -11 -72 -12 -11 -12 -14 -1 -14 10 0 9 -3 -2
-10 -12 -7 -16 -3 -22 23 -4 18 -3 36 2 41 5 5 5 17 -2 29 -14 27 -30 2 -22
-36 9 -44 -40 -243 -62 -251 -19 -7 -27 10 -15 33 16 28 17 84 3 89 -18 6 -15
25 8 45 16 13 20 29 20 77 0 33 -4 60 -10 60 -5 0 -10 -5 -10 -11 0 -5 -5 -7
-10 -4 -13 8 -2 127 13 137 6 3 10 36 9 72 -1 66 6 77 36 57z m182 -108 c0 -5
-5 -15 -10 -23 -8 -12 -10 -11 -10 8 0 12 5 22 10 22 6 0 10 -3 10 -7z m4149
-95 l-2 -63 -7 50 c-6 46 -4 75 6 75 2 0 3 -28 3 -62z m-4436 -25 c-3 -7 -9
-13 -14 -13 -11 0 -12 34 -2 43 9 10 22 -13 16 -30z m2572 -3 c3 -5 1 -10 -4
-10 -6 0 -11 5 -11 10 0 6 2 10 4 10 3 0 8 -4 11 -10z m1802 -32 c-3 -8 -6 -5
-6 6 -1 11 2 17 5 13 3 -3 4 -12 1 -19z m-4335 -89 c-4 -26 -6 -29 -14 -15
-10 18 -1 59 11 52 4 -3 6 -19 3 -37z m4535 -6 c-3 -10 -5 -4 -5 12 0 17 2 24
5 18 2 -7 2 -21 0 -30z m-1457 -20 c23 -20 26 -33 7 -33 -8 0 -19 11 -25 25
-14 29 -9 31 18 8z m358 -31 c2 -7 -5 -12 -17 -12 -14 0 -19 5 -14 15 6 17 25
15 31 -3z m734 -24 c-9 -9 -12 -7 -12 12 0 19 3 21 12 12 9 -9 9 -15 0 -24z
m248 0 c0 -16 -3 -19 -11 -11 -6 6 -8 16 -5 22 11 17 16 13 16 -11z m1488 6
c27 -18 28 -41 3 -71 -16 -19 -23 -21 -51 -13 -42 12 -60 28 -60 52 0 14 5 18
15 14 8 -3 15 -1 15 5 0 8 32 26 50 28 3 1 16 -6 28 -15z m-3775 -24 c6 -23
-10 -37 -25 -22 -12 12 -4 42 11 42 5 0 11 -9 14 -20z m-1646 -82 c-2 -18 -4
-6 -4 27 0 33 2 48 4 33 2 -15 2 -42 0 -60z m1576 48 c3 -7 6 -52 6 -98 1 -82
0 -85 -25 -97 -30 -13 -54 -1 -54 28 0 9 -5 22 -12 29 -9 9 -9 15 0 24 7 7 12
26 12 44 0 17 7 37 15 44 8 7 15 19 15 26 0 18 36 18 43 0z m-2087 -33 c-11
-11 -19 6 -11 24 8 17 8 17 12 0 3 -10 2 -21 -1 -24z m4488 14 c7 -11 7 -20 0
-27 -6 -6 -13 0 -21 21 -13 33 1 37 21 6z m-285 -77 c0 -43 -4 -70 -10 -70 -6
0 -10 12 -9 28 4 50 0 73 -10 67 -5 -3 -10 -1 -10 4 0 6 5 11 10 11 6 0 10 9
10 21 0 11 4 18 9 15 5 -4 9 -38 10 -76z m928 18 c-3 -7 -5 -2 -5 12 0 14 2
19 5 13 2 -7 2 -19 0 -25z m-5013 -19 c-16 -18 -18 -45 -4 -54 6 -3 10 -17 10
-31 0 -13 -4 -24 -10 -24 -5 0 -10 -16 -10 -36 0 -23 -4 -33 -11 -28 -6 3 -8
19 -5 38 3 17 8 42 11 55 2 13 1 31 -4 40 -11 22 17 91 29 71 6 -9 4 -20 -6
-31z m3286 12 c0 -6 -4 -13 -10 -16 -5 -3 -10 1 -10 9 0 9 5 16 10 16 6 0 10
-4 10 -9z m1045 0 c3 -5 1 -12 -5 -16 -5 -3 -10 1 -10 9 0 18 6 21 15 7z
m-1305 -16 c0 -8 -7 -15 -15 -15 -13 0 -14 3 -3 15 16 18 18 18 18 0z m1336
-20 c-3 -8 -10 -15 -15 -15 -7 0 -6 10 1 26 12 26 25 16 14 -11z m651 -37 c-3
-8 -6 -5 -6 6 -1 11 2 17 5 13 3 -3 4 -12 1 -19z m-667 -15 c0 -19 -3 -24 -10
-17 -6 6 -8 18 -4 27 9 24 14 21 14 -10z m-4414 -41 c-15 -15 -16 -15 -16 1 0
9 5 17 10 17 6 0 11 8 11 18 1 15 2 15 6 -2 3 -10 -2 -26 -11 -34z m3134 -6
c-12 -12 -30 2 -30 23 0 29 13 33 26 9 7 -13 9 -27 4 -32z m-2630 -28 c0 -74
-5 -73 -14 5 -4 36 -2 57 4 57 6 0 10 -27 10 -62z m4397 5 c-3 -10 -5 -2 -5
17 0 19 2 27 5 18 2 -10 2 -26 0 -35z m-1787 -13 c0 -5 -7 -10 -16 -10 -8 0
-12 5 -9 10 3 6 10 10 16 10 5 0 9 -4 9 -10z m-3144 -58 c-4 -3 -11 -1 -17 5
-8 8 -7 18 3 34 l13 24 3 -28 c2 -16 1 -31 -2 -35z m4893 16 l-2 -43 -6 35
c-7 33 -5 50 5 50 2 0 3 -19 3 -42z m-4542 10 c-3 -8 -6 -5 -6 6 -1 11 2 17 5
13 3 -3 4 -12 1 -19z m2833 12 c0 -5 -5 -10 -11 -10 -5 0 -7 5 -4 10 3 6 8 10
11 10 2 0 4 -4 4 -10z m-3243 -22 c-3 -8 -6 -5 -6 6 -1 11 2 17 5 13 3 -3 4
-12 1 -19z m510 -40 c-2 -13 -4 -5 -4 17 -1 22 1 32 4 23 2 -10 2 -28 0 -40z
m-77 16 c0 -8 -5 -12 -10 -9 -6 4 -8 11 -5 16 9 14 15 11 15 -7z m3790 6 c0
-5 -4 -10 -10 -10 -5 0 -10 5 -10 10 0 6 5 10 10 10 6 0 10 -4 10 -10z m-3975
-20 c3 -5 1 -10 -4 -10 -6 0 -11 5 -11 10 0 6 2 10 4 10 3 0 8 -4 11 -10z
m409 -236 c5 -98 -2 -131 -21 -102 -8 13 -5 127 4 141 3 4 0 13 -5 20 -5 7
-13 35 -16 62 -3 28 -8 68 -11 90 -4 30 1 22 20 -34 18 -54 26 -103 29 -177z
m-404 196 c0 -5 -4 -10 -10 -10 -5 0 -10 5 -10 10 0 6 5 10 10 10 6 0 10 -4
10 -10z m2840 0 c0 -5 -2 -10 -4 -10 -3 0 -8 5 -11 10 -3 6 -1 10 4 10 6 0 11
-4 11 -10z m177 -12 c-3 -8 -6 -5 -6 6 -1 11 2 17 5 13 3 -3 4 -12 1 -19z
m-2840 -20 c-3 -7 -5 -2 -5 12 0 14 2 19 5 13 2 -7 2 -19 0 -25z m2533 -10 c0
-15 -28 -8 -34 8 -11 28 -6 34 14 17 11 -10 20 -21 20 -25z m1786 5 c-11 -11
-19 6 -11 24 8 17 8 17 12 0 3 -10 2 -21 -1 -24z m-1521 6 c-4 -5 -13 -9 -21
-9 -12 0 -12 2 -2 14 14 15 32 11 23 -5z m-2695 -5 c0 -2 -7 -4 -15 -4 -8 0
-15 4 -15 10 0 5 7 7 15 4 8 -4 15 -8 15 -10z m2120 6 c0 -5 -2 -10 -4 -10 -3
0 -8 5 -11 10 -3 6 -1 10 4 10 6 0 11 -4 11 -10z m-68 -25 c7 -32 -9 -43 -27
-19 -9 13 -10 23 -3 31 16 20 25 16 30 -12z m303 15 c3 -5 -1 -10 -9 -10 -9 0
-16 5 -16 10 0 6 4 10 9 10 6 0 13 -4 16 -10z m1840 -20 c3 -5 1 -10 -4 -10
-6 0 -11 5 -11 10 0 6 2 10 4 10 3 0 8 -4 11 -10z m-1992 -27 c-7 -2 -19 -2
-25 0 -7 3 -2 5 12 5 14 0 19 -2 13 -5z m-2283 -49 c0 -27 -4 -43 -10 -39 -11
7 -13 45 -4 69 10 26 14 18 14 -30z m122 -39 c1 -22 7 -50 13 -62 13 -24 9
-73 -6 -73 -4 0 -10 -44 -12 -97 -3 -88 -4 -85 -5 32 -1 142 -7 233 -16 242
-3 4 -6 11 -6 17 0 6 7 3 15 -5 9 -8 16 -33 17 -54z m-322 0 c0 -24 5 -47 10
-50 6 -3 10 -32 10 -63 1 -36 6 -64 16 -77 11 -14 18 -16 21 -7 6 17 20 15 27
-4 9 -25 -2 -34 -29 -24 -19 7 -23 6 -18 -5 3 -8 0 -15 -6 -15 -6 0 -11 -9
-11 -20 0 -11 5 -20 10 -20 6 0 10 5 10 10 0 6 6 10 13 10 10 0 13 -20 10 -87
-5 -114 -10 -135 -30 -131 -22 4 -42 39 -25 45 14 5 17 73 3 73 -5 0 -9 33
-10 73 -2 107 -9 216 -15 225 -4 7 -9 82 -7 110 1 7 6 10 11 7 6 -3 10 -26 10
-50z m2474 20 c3 -8 2 -15 -3 -15 -5 0 -14 7 -21 15 -10 12 -10 15 3 15 8 0
17 -7 21 -15z m-2384 -16 c0 -5 -4 -9 -10 -9 -5 0 -10 7 -10 16 0 8 5 12 10 9
6 -3 10 -10 10 -16z m3860 -12 c0 -12 -5 -29 -10 -37 -7 -11 -10 -3 -10 28 0
26 4 41 10 37 6 -3 10 -16 10 -28z m-3728 -60 l-2 -42 17 30 c17 30 18 30 21
6 2 -13 -2 -27 -8 -31 -7 -4 -10 -12 -6 -18 3 -6 2 -22 -4 -36 -9 -24 -8 -25
10 -14 10 7 21 10 24 7 3 -3 6 -82 7 -177 2 -95 6 -172 10 -172 13 0 20 -33 9
-44 -8 -8 -12 -4 -16 12 -12 43 -24 10 -24 -64 0 -48 -4 -73 -10 -69 -5 3 -10
22 -10 42 0 27 -3 34 -15 29 -10 -3 -18 1 -22 12 -4 9 -11 20 -16 23 -6 4 -6
15 -2 25 8 18 8 18 12 2 9 -36 43 -13 42 27 0 17 3 54 7 83 7 56 -19 172 -39
172 -5 0 -6 7 -3 16 3 8 1 58 -5 110 -8 73 -7 99 2 110 17 21 24 9 21 -39z
m-102 -27 c0 -16 -15 -12 -34 9 -10 11 -15 25 -11 31 8 12 45 -20 45 -40z
m-40 -50 c0 -11 -4 -20 -10 -20 -5 0 -10 9 -10 20 0 11 5 20 10 20 6 0 10 -9
10 -20z m332 -17 c4 -2 0 -20 -9 -39 -13 -27 -14 -37 -5 -43 16 -9 19 -134 3
-139 -6 -2 -11 -15 -11 -28 0 -40 -20 -27 -21 14 -1 20 -1 45 0 55 1 9 -3 17
-10 17 -7 0 -9 8 -4 23 8 24 12 57 14 117 1 39 7 42 43 23z m2339 -56 c-8 -8
-11 -7 -11 4 0 20 13 34 18 19 3 -7 -1 -17 -7 -23z m60 -27 c16 0 29 -4 29 -9
0 -5 11 -12 25 -15 18 -5 25 -13 25 -31 0 -18 5 -25 20 -25 11 0 23 -7 26 -15
4 -8 12 -15 19 -15 24 0 26 -19 5 -40 -17 -17 -19 -24 -10 -35 7 -8 9 -19 5
-24 -3 -7 0 -8 9 -5 18 7 19 3 10 -20 -8 -20 -33 -21 -48 0 -10 13 -16 12 -49
-10 -44 -30 -59 -33 -56 -8 3 35 -1 53 -12 47 -5 -4 -8 -12 -6 -18 4 -12 -47
-67 -63 -67 -5 0 -10 -4 -10 -10 0 -16 -30 -12 -48 6 -13 13 -17 14 -21 3 -2
-7 1 -15 8 -17 14 -5 15 -42 1 -42 -5 0 -10 -9 -10 -20 0 -17 -7 -20 -40 -20
-33 0 -40 -3 -40 -20 0 -16 -7 -20 -36 -20 -21 0 -33 -4 -29 -10 3 -5 -3 -10
-15 -10 -12 0 -18 -4 -15 -10 10 -15 -25 -12 -41 4 -8 8 -14 21 -14 28 0 8 -6
23 -14 34 -12 16 -17 17 -28 5 -10 -11 -10 -14 0 -18 14 -6 16 -43 2 -43 -5 0
-10 -7 -10 -16 0 -8 5 -12 10 -9 6 3 17 -1 26 -9 8 -9 24 -16 35 -16 16 0 19
-7 19 -52 -1 -48 -2 -51 -15 -34 -8 10 -12 23 -9 27 8 13 -15 49 -31 49 -8 0
-15 5 -15 10 0 6 -17 10 -39 8 -33 -1 -44 3 -69 30 -32 34 -60 40 -92 20 -17
-11 -22 -10 -30 2 -7 10 -13 11 -17 5 -5 -6 -20 -18 -35 -28 -26 -16 -28 -16
-46 4 l-20 20 -6 -25 c-8 -31 -36 -35 -36 -6 0 11 -7 23 -15 26 -21 9 -19 34
4 34 10 0 21 9 24 20 4 15 14 20 36 20 17 0 31 -5 31 -12 0 -9 3 -9 12 0 7 7
20 12 29 12 10 0 20 6 23 13 3 8 11 5 24 -10 22 -25 62 -31 62 -9 0 18 22 26
71 26 32 0 39 3 39 20 0 13 7 20 20 20 24 0 70 21 70 32 0 4 11 8 24 8 15 0
26 7 29 19 5 19 57 28 57 10 0 -5 -4 -9 -10 -9 -5 0 -10 -4 -10 -10 0 -13 32
0 47 19 11 14 14 14 22 1 5 -8 7 -18 5 -22 -3 -4 4 -8 15 -8 12 0 22 5 22 10
1 6 2 14 3 19 1 13 14 25 29 27 7 1 12 -11 13 -28 2 -41 15 -51 47 -36 19 9
27 21 27 39 0 34 -29 47 -47 23 -12 -16 -13 -16 -13 -2 0 9 5 20 10 23 6 3 10
15 10 26 0 11 -4 17 -10 14 -5 -3 -10 3 -10 14 0 14 6 21 20 21 15 0 20 7 20
29 0 16 -5 31 -12 33 -21 7 0 38 26 38 20 0 23 4 20 23 -2 12 -2 16 2 10 3 -7
19 -13 35 -13z m-2901 -30 c0 -5 -4 -10 -10 -10 -5 0 -10 5 -10 10 0 6 5 10
10 10 6 0 10 -4 10 -10z m1464 -26 c9 -22 8 -24 -9 -24 -8 0 -15 9 -15 20 0
24 15 27 24 4z m976 1 c0 -8 -4 -15 -10 -15 -5 0 -10 7 -10 15 0 8 5 15 10 15
6 0 10 -7 10 -15z m-2230 -116 c0 -10 5 -21 10 -24 13 -8 13 -52 1 -60 -15 -8
-25 15 -31 72 -5 42 -3 50 7 41 7 -6 13 -19 13 -29z m80 21 c0 -5 -5 -10 -11
-10 -5 0 -7 5 -4 10 3 6 8 10 11 10 2 0 4 -4 4 -10z m149 -47 c1 -7 -3 -13 -9
-13 -5 0 -10 15 -9 33 0 27 2 29 9 12 5 -11 9 -26 9 -32z m-149 -45 c0 -16 -4
-28 -10 -28 -5 0 -10 9 -10 19 0 11 -4 22 -9 25 -5 3 -7 15 -4 26 5 19 6 20
19 3 7 -10 14 -30 14 -45z m198 2 c-2 -27 -28 -45 -28 -20 0 6 5 10 10 10 6 0
10 9 10 20 0 11 2 20 5 20 3 0 4 -13 3 -30z m271 -22 c0 -27 -2 -29 -8 -13 -5
11 -6 26 -4 33 8 21 13 13 12 -20z m-613 -33 c-8 -23 -25 -9 -19 16 4 13 9 17
16 10 5 -5 7 -17 3 -26z m-45 -48 c-8 -8 -11 -7 -11 4 0 20 13 34 18 19 3 -7
-1 -17 -7 -23z m2779 29 c0 -2 3 -11 6 -20 4 -12 0 -16 -15 -16 -12 0 -21 -6
-21 -14 0 -15 -21 -26 -47 -26 -12 0 -10 5 7 20 13 11 27 20 32 20 4 0 8 9 8
20 0 11 7 20 15 20 8 0 15 -2 15 -4z m-2650 -21 c0 -8 -4 -15 -10 -15 -5 0
-10 7 -10 15 0 8 5 15 10 15 6 0 10 -7 10 -15z m180 -21 c0 -14 -4 -23 -10
-19 -5 3 -10 15 -10 26 0 10 5 19 10 19 6 0 10 -12 10 -26z m40 16 c0 -5 -4
-10 -10 -10 -5 0 -10 5 -10 10 0 6 5 10 10 10 6 0 10 -4 10 -10z m890 -39 c0
-28 5 -53 10 -56 6 -3 10 -15 10 -26 0 -10 3 -19 8 -19 4 0 12 -11 19 -25 16
-36 6 -31 -38 18 -45 48 -54 73 -45 122 11 56 36 46 36 -14z m-853 17 c-3 -8
-6 -5 -6 6 -1 11 2 17 5 13 3 -3 4 -12 1 -19z m2533 -20 c0 -5 -7 -8 -15 -8
-17 0 -18 2 -9 25 5 13 8 14 15 3 5 -7 9 -16 9 -20z m-2320 -34 c0 -21 -4 -33
-10 -29 -17 10 -11 65 7 65 2 0 3 -16 3 -36z m-210 16 c0 -5 -5 -10 -11 -10
-5 0 -7 5 -4 10 3 6 8 10 11 10 2 0 4 -4 4 -10z m2570 0 c0 -5 -7 -10 -16 -10
-8 0 -12 5 -9 10 3 6 10 10 16 10 5 0 9 -4 9 -10z m-2940 -32 c0 -19 -2 -20
-10 -8 -13 19 -13 30 0 30 6 0 10 -10 10 -22z m2650 12 c0 -5 -4 -10 -10 -10
-5 0 -10 5 -10 10 0 6 5 10 10 10 6 0 10 -4 10 -10z m-714 -33 c10 4 14 -3 13
-23 0 -16 -3 -24 -5 -17 -3 7 -12 9 -20 6 -8 -3 -14 -1 -14 5 0 6 -3 19 -6 29
-6 14 -4 16 6 6 7 -6 19 -9 26 -6z m-1653 -44 c-9 -24 -23 -13 -23 19 0 30 1
30 14 13 8 -11 12 -25 9 -32z m2372 37 c3 -5 1 -10 -4 -10 -6 0 -11 5 -11 10
0 6 2 10 4 10 3 0 8 -4 11 -10z m-1765 -30 c0 -10 -4 -22 -10 -25 -6 -4 -10 7
-10 25 0 18 4 29 10 25 6 -3 10 -15 10 -25z m-669 7 c-1 -12 -15 -9 -19 4 -3
6 1 10 8 8 6 -3 11 -8 11 -12z m2332 6 c4 -3 2 -12 -4 -20 -9 -9 -8 -13 0 -13
6 0 11 -8 11 -17 -1 -14 -6 -12 -25 10 -14 15 -25 25 -25 22 0 -3 -5 -3 -10 0
-6 4 -8 11 -5 16 7 10 48 12 58 2z m-2220 -70 c-4 -10 -9 -11 -16 -4 -5 5 -7
18 -3 28 6 14 9 15 16 4 4 -8 6 -21 3 -28z m344 -10 c-3 -10 -5 -4 -5 12 0 17
2 24 5 18 2 -7 2 -21 0 -30z m-390 -5 c-3 -8 -6 -5 -6 6 -1 11 2 17 5 13 3 -3
4 -12 1 -19z m1623 2 c0 -19 -11 -26 -23 -14 -8 8 3 34 14 34 5 0 9 -9 9 -20z
m-2070 -15 c0 -14 -4 -25 -9 -25 -12 0 -23 29 -15 41 10 18 24 9 24 -16z m636
-22 c-11 -11 -19 6 -11 24 8 17 8 17 12 0 3 -10 2 -21 -1 -24z m494 12 c0 -8
-4 -15 -10 -15 -5 0 -10 7 -10 15 0 8 5 15 10 15 6 0 10 -7 10 -15z m2210 5
c0 -5 -4 -10 -10 -10 -5 0 -10 5 -10 10 0 6 5 10 10 10 6 0 10 -4 10 -10z
m-2350 -95 c10 -26 35 -34 43 -12 3 8 11 5 25 -11 11 -12 24 -22 28 -20 11 3
57 -22 66 -36 9 -14 -26 -46 -51 -46 -11 0 -23 -4 -26 -10 -3 -5 -15 -10 -26
-10 -10 0 -19 5 -19 10 0 6 -11 10 -24 10 -25 0 -44 35 -22 43 8 3 8 8 -1 18
-12 12 -19 89 -8 89 3 0 10 -11 15 -25z m1749 -39 c7 -8 8 -17 3 -20 -6 -3
-12 3 -15 14 -6 24 -4 25 12 6z m-629 -21 c0 -14 -4 -25 -10 -25 -5 0 -10 11
-10 25 0 14 5 25 10 25 6 0 10 -11 10 -25z m106 6 c-4 -5 0 -11 6 -14 7 -2 10
-7 7 -11 -3 -3 -14 3 -24 14 -17 18 -17 20 -1 20 9 0 15 -4 12 -9z m102 -64
c2 -15 -1 -27 -7 -27 -6 0 -11 6 -11 14 0 8 -3 22 -7 32 -4 12 -2 15 8 12 8
-2 15 -17 17 -31z m-201 -35 c10 -54 10 -54 -14 -49 -24 4 -32 -3 -37 -37 -1
-8 -5 -19 -9 -22 -9 -9 -9 -67 -1 -88 3 -9 14 -16 23 -16 15 1 15 1 0 10 -18
11 -16 46 7 96 13 30 44 54 44 35 0 -21 -13 -41 -27 -41 -8 0 -13 -7 -11 -17
5 -25 32 -22 36 4 2 12 10 27 18 33 8 7 14 19 14 26 0 8 3 14 8 14 4 0 7 -18
7 -40 0 -29 -5 -42 -20 -50 -26 -14 -46 -59 -39 -86 6 -24 2 -28 -38 -38 -25
-6 -28 -4 -28 18 0 14 -4 28 -10 31 -5 3 -10 28 -10 56 0 27 5 49 10 49 6 0
10 20 10 45 0 25 4 45 9 45 7 0 25 54 23 71 -1 3 5 6 12 6 8 0 17 -22 23 -55z
m-1172 39 c3 -5 1 -12 -5 -16 -5 -3 -10 1 -10 9 0 18 6 21 15 7z m1675 -21 c8
-16 8 -18 -5 -14 -8 3 -12 10 -9 15 3 5 0 9 -5 9 -6 0 -11 5 -11 11 0 14 18 2
30 -21z m-570 -6 c0 -8 -4 -12 -10 -9 -5 3 -10 10 -10 16 0 5 5 9 10 9 6 0 10
-7 10 -16z m140 -16 c-1 -26 -3 -30 -10 -16 -6 9 -7 23 -4 32 9 25 14 19 14
-16z m-439 -8 c21 0 7 -19 -18 -24 -26 -6 -28 -11 -28 -53 -1 -27 -6 -48 -13
-51 -7 -2 -12 -23 -12 -50 0 -56 -13 -83 -31 -65 -10 10 -10 18 1 38 12 22 11
27 -5 39 -18 13 -18 15 -2 40 10 14 22 26 27 26 6 0 10 13 10 29 0 16 7 34 15
41 8 7 15 19 15 27 0 10 6 13 16 9 9 -3 20 -6 25 -6z m254 -70 c3 -5 1 -10 -4
-10 -6 0 -11 5 -11 10 0 6 2 10 4 10 3 0 8 -4 11 -10z m-208 -32 c-3 -7 -5 -2
-5 12 0 14 2 19 5 13 2 -7 2 -19 0 -25z m523 12 c0 -11 5 -20 12 -20 9 0 9 -3
0 -12 -7 -7 -12 -20 -12 -30 0 -10 -4 -18 -9 -18 -4 0 -9 23 -10 50 0 28 4 50
9 50 6 0 10 -9 10 -20z m-680 0 c0 -5 -4 -10 -9 -10 -6 0 -13 5 -16 10 -3 6 1
10 9 10 9 0 16 -4 16 -10z m1042 -52 c-9 -9 -12 -8 -12 5 0 9 -4 17 -10 17 -5
0 -10 7 -10 15 0 13 4 12 22 -5 17 -16 19 -23 10 -32z m-744 9 c-16 -26 -12
-67 7 -67 19 0 48 -49 39 -68 -6 -15 -8 -15 -12 3 -5 24 -21 45 -33 45 -12 0
-12 -57 0 -64 13 -8 19 -65 7 -60 -14 6 -36 53 -36 78 0 12 -4 28 -10 36 -6 9
-5 17 1 21 7 4 6 14 -3 29 -10 18 -10 24 0 27 6 3 12 13 12 23 0 10 6 20 13
23 22 8 28 -4 15 -26z m-159 1 c0 -16 -2 -18 -6 -8 -3 8 -11 18 -17 22 -7 5
-4 8 7 8 11 0 17 -7 16 -22z m461 0 c0 -13 -4 -29 -9 -37 -13 -20 -24 4 -17
35 8 30 26 32 26 2z m-230 -4 c0 -2 -7 -4 -15 -4 -8 0 -15 4 -15 10 0 5 7 7
15 4 8 -4 15 -8 15 -10z m-920 -34 c0 -6 -9 -10 -20 -10 -13 0 -20 7 -20 20 0
18 3 19 20 10 11 -6 20 -15 20 -20z m744 -11 c11 -18 16 -40 12 -54 -4 -16 -1
-27 10 -33 10 -6 13 -12 6 -16 -6 -3 -20 6 -31 20 -20 25 -21 26 -21 5 0 -11
4 -21 9 -21 5 0 14 -14 21 -31 10 -22 10 -33 1 -42 -8 -8 -11 -7 -11 4 0 7
-10 25 -21 39 l-21 25 7 -40 c11 -65 11 -98 -1 -102 -12 -4 -37 46 -34 68 5
31 -1 49 -15 49 -12 0 -13 4 -5 19 5 11 10 33 10 49 0 26 43 92 60 92 3 0 14
-14 24 -31z m333 9 c-3 -8 -6 -5 -6 6 -1 11 2 17 5 13 3 -3 4 -12 1 -19z
m-445 -127 c-4 -11 -8 -10 -18 4 -7 9 -18 14 -24 10 -16 -10 -2 34 16 53 8 7
12 18 9 23 -4 5 -3 15 2 22 9 14 23 -89 15 -112z m558 110 c0 -6 -4 -13 -10
-16 -5 -3 -10 1 -10 9 0 9 5 16 10 16 6 0 10 -4 10 -9z m-76 -72 c-3 -5 -12
-9 -20 -9 -8 0 -14 -5 -14 -12 0 -6 -3 -9 -6 -6 -11 12 16 47 31 42 8 -4 12
-10 9 -15z m-604 -18 c0 -6 -4 -13 -10 -16 -5 -3 -10 1 -10 9 0 9 5 16 10 16
6 0 10 -4 10 -9z m975 -34 c-16 -25 -43 -42 -53 -33 -6 7 24 36 36 36 6 0 13
7 16 16 4 9 9 14 12 11 3 -3 -2 -17 -11 -30z m-889 -12 c-5 -20 -3 -25 14 -25
16 0 19 -6 16 -30 -2 -18 1 -30 8 -30 17 0 56 -38 56 -54 0 -9 -7 -12 -21 -9
-14 4 -25 0 -31 -11 -5 -9 -13 -14 -19 -11 -15 10 -10 22 11 28 30 8 24 34
-11 46 -40 14 -69 14 -69 1 0 -19 -16 -10 -17 9 -1 12 7 21 21 25 18 4 22 11
19 31 -6 30 2 55 18 55 7 0 9 -9 5 -25z m570 -27 l-16 -22 0 26 c0 14 6 28 13
31 19 6 20 -10 3 -35z m-681 -43 c23 -22 34 -55 19 -55 -11 0 -34 29 -34 44 0
9 -4 16 -10 16 -5 0 -10 5 -10 10 0 16 9 12 35 -15z m475 15 c0 -5 -4 -10 -10
-10 -5 0 -10 5 -10 10 0 6 5 10 10 10 6 0 10 -4 10 -10z m-80 -51 c0 -11 -4
-17 -10 -14 -5 3 -10 13 -10 21 0 8 5 14 10 14 6 0 10 -9 10 -21z m-363 -157
c-10 -10 -24 -12 -42 -8 -37 9 -29 36 15 51 32 11 35 10 38 -8 2 -11 -3 -26
-11 -35z m-207 -14 c0 -5 -9 -8 -20 -8 -18 0 -19 3 -8 20 9 14 14 16 20 7 4
-7 8 -15 8 -19z m903 7 c-3 -8 -9 -15 -14 -15 -10 0 -12 24 -3 33 11 11 24 -3
17 -18z m-783 -45 c0 -5 -4 -10 -10 -10 -5 0 -10 5 -10 10 0 6 5 10 10 10 6 0
10 -4 10 -10z"/>
<path d="M3275 5040 c4 -6 11 -8 16 -5 14 9 11 15 -7 15 -8 0 -12 -5 -9 -10z"/>
<path d="M3477 4916 c-7 -18 1 -26 25 -26 22 0 23 7 4 26 -18 18 -22 18 -29 0z"/>
<path d="M3490 4860 c19 -13 30 -13 30 0 0 6 -10 10 -22 10 -19 0 -20 -2 -8
-10z"/>
<path d="M3750 3639 c0 -5 5 -7 10 -4 6 3 10 8 10 11 0 2 -4 4 -10 4 -5 0 -10
-5 -10 -11z"/>
<path d="M3494 2372 c3 -18 18 -20 24 -4 1 5 -4 12 -12 15 -9 4 -13 0 -12 -11z"/>
<path d="M3382 2230 c0 -14 2 -19 5 -12 2 6 2 18 0 25 -3 6 -5 1 -5 -13z"/>
<path d="M1476 5698 c-28 -50 -88 -108 -109 -108 -11 0 -25 7 -32 17 -18 25
-39 10 -69 -49 -59 -119 -101 -178 -123 -178 -5 0 -17 -24 -28 -52 -11 -29
-21 -57 -23 -61 -2 -5 2 -7 9 -6 8 1 21 -1 30 -5 12 -5 29 4 57 33 22 22 42
47 45 56 4 8 11 15 16 15 13 0 39 56 44 95 4 28 5 28 12 8 10 -30 30 -29 71 2
18 14 37 25 42 25 4 0 18 10 30 23 23 24 30 57 12 57 -5 0 -10 -6 -10 -14 0
-15 -24 -28 -34 -19 -14 14 -4 33 19 39 14 3 23 10 20 14 -3 5 9 22 26 39 17
17 27 31 23 31 -4 0 5 10 19 23 35 29 34 47 -1 47 -21 0 -32 -8 -46 -32z"/>
<path d="M1572 5710 c-15 -24 -16 -57 -2 -65 6 -4 9 -2 8 3 -4 13 42 53 53 46
11 -6 49 14 49 26 0 6 -9 10 -20 10 -11 0 -20 -4 -20 -10 0 -5 -5 -10 -11 -10
-5 0 -7 5 -4 10 3 6 -4 10 -17 10 -13 0 -29 -9 -36 -20z"/>
<path d="M1975 5708 c-4 -13 -8 -42 -10 -65 -2 -23 -11 -63 -20 -88 -8 -25
-15 -55 -15 -67 0 -19 3 -18 30 10 17 18 30 41 30 51 0 11 5 23 10 26 6 3 10
19 10 35 0 16 5 32 10 35 6 3 10 24 10 46 0 34 -3 39 -24 39 -16 0 -26 -7 -31
-22z"/>
<path d="M2668 5703 c5 -26 27 -52 44 -53 4 0 5 12 4 28 -2 15 -4 33 -5 40 0
6 -12 12 -25 12 -20 0 -23 -4 -18 -27z"/>
<path d="M1482 5600 c-16 -27 -15 -30 9 -30 11 0 17 5 14 10 -5 9 15 15 38 11
4 0 7 6 7 14 0 23 -53 19 -68 -5z"/>
<path d="M2800 5430 c0 -5 6 -10 14 -10 8 0 16 -6 19 -12 2 -7 8 -10 12 -6 9
8 -18 38 -34 38 -6 0 -11 -4 -11 -10z"/>
<path d="M1335 5350 c-3 -5 -1 -10 4 -10 6 0 11 5 11 10 0 6 -2 10 -4 10 -3 0
-8 -4 -11 -10z"/>
<path d="M1583 5337 c-3 -5 1 -14 8 -19 11 -7 11 -11 2 -15 -18 -7 -16 -23 2
-23 16 0 35 37 28 56 -5 13 -32 14 -40 1z"/>
<path d="M1296 5323 c-11 -3 -26 -11 -34 -19 -8 -9 -23 -12 -39 -8 -22 6 -25
4 -20 -10 4 -9 3 -16 -1 -16 -4 0 -13 -14 -19 -31 -9 -24 -16 -29 -31 -25 -11
4 -24 0 -31 -8 -10 -12 -9 -13 8 -9 16 4 21 0 22 -13 0 -11 3 -14 6 -6 2 6 11
12 18 12 7 0 15 7 19 15 3 8 15 15 26 15 11 0 20 5 20 10 0 6 7 10 15 10 8 0
15 4 15 8 0 5 18 16 40 25 29 11 40 21 40 36 0 21 -13 24 -54 14z"/>
<path d="M1468 5323 c-31 -8 -19 -23 17 -23 36 0 47 13 19 24 -9 3 -16 5 -17
5 -1 -1 -10 -3 -19 -6z"/>
<path d="M1673 5294 c-6 -13 -7 -24 -3 -24 9 0 25 39 18 45 -2 2 -8 -7 -15
-21z"/>
<path d="M1612 5212 c-13 -17 -18 -32 -12 -32 19 0 42 29 38 47 -3 14 -8 11
-26 -15z"/>
<path d="M2123 5201 c2 -22 1 -43 -4 -48 -5 -5 -4 -25 2 -47 6 -22 8 -60 4
-85 -3 -25 -8 -100 -11 -166 -3 -73 -9 -122 -16 -126 -6 -4 -8 -14 -5 -23 8
-21 37 -9 37 14 0 11 5 22 10 25 6 3 10 34 10 68 0 34 6 85 12 114 12 52 25
62 38 32 4 -8 12 -24 18 -36 7 -13 12 -36 12 -52 0 -17 5 -33 10 -36 6 -3 10
-19 10 -34 0 -15 9 -37 20 -49 11 -12 20 -31 20 -43 0 -12 8 -23 18 -25 9 -3
26 -16 37 -30 75 -93 125 -123 110 -66 -4 15 -8 36 -9 46 -1 11 -11 31 -24 45
-12 13 -21 32 -19 40 2 9 -5 31 -16 50 -16 26 -17 35 -7 41 11 7 10 11 -3 24
-8 9 -20 16 -25 16 -5 0 -19 21 -30 48 -11 26 -32 61 -46 77 -15 17 -32 42
-39 57 -6 15 -19 27 -27 25 -9 -1 -13 4 -11 13 8 31 -6 87 -30 122 -11 14 -19
31 -19 37 0 6 -7 11 -16 11 -14 0 -16 -7 -11 -39z"/>
<path d="M1580 5145 c0 -8 5 -15 10 -15 6 0 10 7 10 15 0 8 -4 15 -10 15 -5 0
-10 -7 -10 -15z"/>
<path d="M2400 5140 c0 -11 4 -20 9 -20 11 0 22 26 14 34 -12 12 -23 5 -23
-14z"/>
<path d="M1550 5095 c-20 -24 -6 -28 15 -5 10 11 13 20 8 20 -6 0 -16 -7 -23
-15z"/>
<path d="M1303 5055 c-18 -20 -16 -25 7 -25 13 0 20 7 20 20 0 23 -10 25 -27
5z"/>
<path d="M1521 5054 c0 -11 3 -14 6 -6 3 7 2 16 -1 19 -3 4 -6 -2 -5 -13z"/>
<path d="M1502 5000 c0 -19 2 -27 5 -17 2 9 2 25 0 35 -3 9 -5 1 -5 -18z"/>
<path d="M1320 4985 c-7 -14 -10 -28 -7 -31 4 -4 11 6 17 21 14 36 7 42 -10
10z"/>
<path d="M2825 4704 c-11 -16 -103 -23 -126 -9 -28 18 -90 15 -112 -5 -18 -17
-18 -20 -4 -20 9 0 17 -6 17 -14 0 -8 7 -16 15 -20 17 -6 45 2 45 14 0 15 34
16 66 4 39 -16 118 -11 122 8 1 8 -1 24 -5 36 -7 19 -10 19 -18 6z"/>
<path d="M2540 4685 c0 -8 4 -15 9 -15 5 0 11 7 15 15 3 9 0 15 -9 15 -8 0
-15 -7 -15 -15z"/>
<path d="M2706 4635 c4 -8 8 -15 10 -15 2 0 4 7 4 15 0 8 -4 15 -10 15 -5 0
-7 -7 -4 -15z"/>
<path d="M3115 4621 c-9 -8 -5 -26 10 -45 12 -16 17 -17 30 -6 8 7 12 16 10
21 -3 4 2 12 11 17 14 8 9 10 -20 14 -20 2 -39 2 -41 -1z"/>
<path d="M3150 4540 c0 -5 5 -10 10 -10 6 0 10 5 10 10 0 6 -4 10 -10 10 -5 0
-10 -4 -10 -10z"/>
<path d="M2481 4504 c0 -11 3 -14 6 -6 3 7 2 16 -1 19 -3 4 -6 -2 -5 -13z"/>
<path d="M2493 4465 c-10 -10 -9 -14 3 -19 9 -3 14 -12 11 -19 -2 -6 4 -24 14
-38 20 -29 80 -43 112 -27 21 11 36 -17 18 -35 -15 -15 -14 -27 3 -27 14 0 62
58 59 72 -2 4 4 8 12 8 8 0 15 9 15 20 0 11 -4 20 -10 20 -5 0 -10 7 -10 16 0
8 -4 13 -9 9 -6 -3 -25 4 -43 15 -42 25 -73 25 -100 0 -27 -25 -56 -26 -60 -1
-2 15 -5 17 -15 6z"/>
<path d="M2861 4466 c8 -6 14 -21 13 -32 -1 -14 5 -21 15 -20 8 0 16 -4 16
-11 0 -22 13 -25 24 -5 6 11 8 33 5 49 -5 25 -10 28 -47 29 -32 1 -38 -1 -26
-10z"/>
<path d="M2745 4450 c-3 -5 -1 -10 4 -10 6 0 11 5 11 10 0 6 -2 10 -4 10 -3 0
-8 -4 -11 -10z"/>
<path d="M2267 4363 c-12 -11 -8 -23 8 -23 8 0 15 7 15 15 0 16 -12 20 -23 8z"/>
<path d="M2580 4311 c0 -6 5 -13 10 -16 6 -3 10 1 10 9 0 9 -4 16 -10 16 -5 0
-10 -4 -10 -9z"/>
<path d="M2550 4230 c-12 -8 -10 -10 8 -10 13 0 20 4 17 10 -7 12 -6 12 -25 0z"/>
<path d="M1787 4193 c-4 -3 -7 -11 -7 -17 0 -6 5 -5 12 2 6 6 9 14 7 17 -3 3
-9 2 -12 -2z"/>
<path d="M1761 4160 c4 -37 -1 -43 -31 -36 -22 4 -30 2 -30 -8 0 -7 -7 -20
-16 -27 -14 -11 -18 -11 -29 4 -14 20 -31 22 -38 5 -4 -10 -7 -10 -18 0 -18
17 -39 15 -39 -4 0 -11 -5 -14 -16 -10 -9 3 -20 6 -25 6 -5 0 -9 9 -9 19 0 16
-7 20 -40 19 -22 0 -40 -4 -40 -9 0 -5 5 -9 11 -9 6 0 8 -8 4 -19 -3 -12 0
-21 10 -25 11 -4 15 2 15 24 0 17 5 30 10 30 6 0 10 -6 10 -13 0 -8 15 -27 33
-44 26 -25 57 -68 75 -105 2 -5 -3 -8 -11 -8 -9 0 -17 3 -19 8 -1 4 -23 22
-47 41 -37 29 -46 32 -63 22 -16 -10 -22 -9 -37 8 -9 11 -26 19 -36 18 -12 -1
-24 7 -30 21 -5 12 -18 22 -27 22 -24 0 -23 -12 2 -30 11 -8 20 -20 20 -28 0
-23 27 -42 58 -42 25 0 29 -3 25 -20 -6 -21 -19 -27 -25 -11 -3 8 -37 15 -65
12 -17 -1 -16 -19 2 -38 8 -8 13 -19 10 -23 -3 -5 2 -18 12 -29 9 -11 18 -30
20 -43 2 -13 12 -30 23 -40 11 -9 20 -26 20 -37 0 -16 6 -21 29 -21 16 0 34
-6 40 -14 9 -11 20 -12 49 -4 20 5 48 11 61 12 13 2 28 11 32 22 4 11 14 26
23 33 10 8 16 29 16 53 0 41 17 68 44 68 9 0 16 5 16 10 0 6 17 10 39 10 35 0
39 -3 46 -32 7 -29 9 -30 12 -10 4 17 11 22 38 22 34 0 49 -17 39 -45 -6 -15
-22 -20 -56 -17 -26 2 -22 -23 7 -42 28 -18 103 -21 138 -5 21 9 69 77 67 94
-3 36 1 39 20 15 11 -14 20 -19 20 -12 0 17 20 15 20 -3 0 -8 5 -15 10 -15 6
0 10 11 10 25 0 14 -4 25 -10 25 -16 0 -11 17 7 24 11 4 22 1 29 -8 6 -9 16
-16 23 -16 6 0 11 -4 11 -10 0 -5 -5 -10 -11 -10 -6 0 -8 -8 -5 -18 4 -12 -1
-21 -16 -27 -35 -16 -34 -35 1 -35 17 0 31 -5 31 -11 0 -5 5 -7 10 -4 6 3 10
26 10 51 0 24 5 44 10 44 6 0 10 11 10 24 0 14 5 28 10 31 6 3 10 24 10 45 0
21 5 42 10 45 15 9 12 62 -4 68 -16 6 -26 -13 -26 -49 0 -13 -4 -24 -10 -24
-5 0 -10 7 -10 15 0 8 -5 15 -10 15 -6 0 -10 -6 -9 -12 5 -38 -25 -76 -45 -59
-20 17 -56 1 -56 -25 0 -12 -4 -26 -10 -29 -5 -3 -10 3 -10 14 0 12 -4 21 -10
21 -14 0 -12 27 3 33 6 3 1 6 -13 6 -15 1 -30 -3 -36 -9 -12 -12 -84 19 -84
37 0 6 -8 17 -17 22 -17 10 -17 10 0 11 20 0 22 11 5 28 -17 17 -65 15 -72 -3
-3 -8 -15 -15 -26 -15 -11 0 -20 -7 -20 -15 0 -8 4 -15 9 -15 5 0 12 -7 15
-16 6 -15 4 -15 -18 0 -14 9 -34 16 -46 16 -25 0 -25 5 0 33 20 21 24 49 6 47
-5 -1 -13 4 -18 12 -7 10 -9 10 -7 -2z m-21 -80 c0 -5 -4 -10 -10 -10 -5 0
-10 5 -10 10 0 6 5 10 10 10 6 0 10 -4 10 -10z m-130 -51 c0 -5 -8 -9 -17 -8
-11 0 -13 3 -5 6 6 2 9 10 6 15 -4 7 -2 8 4 4 7 -4 12 -11 12 -17z m70 -24 c0
-9 -9 -15 -25 -15 -26 0 -34 15 -12 23 23 10 37 7 37 -8z m160 -5 c0 -5 -5
-10 -11 -10 -5 0 -7 5 -4 10 3 6 8 10 11 10 2 0 4 -4 4 -10z m-330 -70 c0 -5
-2 -10 -4 -10 -3 0 -8 5 -11 10 -3 6 -1 10 4 10 6 0 11 -4 11 -10z m130 -30
c0 -5 -4 -10 -10 -10 -5 0 -10 5 -10 10 0 6 5 10 10 10 6 0 10 -4 10 -10z
m350 0 c0 -5 -7 -10 -15 -10 -8 0 -15 5 -15 10 0 6 7 10 15 10 8 0 15 -4 15
-10z m-475 -20 c3 -5 -1 -10 -10 -10 -9 0 -13 5 -10 10 3 6 8 10 10 10 2 0 7
-4 10 -10z m110 -60 c3 -5 -1 -10 -9 -10 -9 0 -16 5 -16 10 0 6 4 10 9 10 6 0
13 -4 16 -10z"/>
<path d="M1600 4152 c0 -5 7 -13 16 -16 10 -4 14 -1 12 6 -5 15 -28 23 -28 10z"/>
<path d="M1390 4090 c0 -11 4 -20 9 -20 5 0 11 9 14 20 3 13 0 20 -9 20 -8 0
-14 -9 -14 -20z"/>
<path d="M2068 3837 c-32 -13 -37 -27 -9 -27 30 0 51 11 51 26 0 16 -4 16 -42
1z"/>
<path d="M477 3834 c-10 -10 -9 -72 2 -78 5 -3 11 0 14 7 7 19 -6 80 -16 71z"/>
<path d="M2190 3754 c0 -14 4 -23 10 -19 6 3 10 15 10 26 0 10 -4 19 -10 19
-5 0 -10 -12 -10 -26z"/>
<path d="M1430 3695 c0 -9 5 -15 11 -13 6 2 11 8 11 13 0 5 -5 11 -11 13 -6 2
-11 -4 -11 -13z"/>
<path d="M3580 3371 c0 -6 5 -13 10 -16 6 -3 10 1 10 9 0 9 -4 16 -10 16 -5 0
-10 -4 -10 -9z"/>
<path d="M3526 3353 c-9 -9 -7 -33 3 -33 12 0 22 28 12 34 -5 3 -11 3 -15 -1z"/>
<path d="M3580 3330 c0 -5 5 -10 10 -10 6 0 10 5 10 10 0 6 -4 10 -10 10 -5 0
-10 -4 -10 -10z"/>
<path d="M3520 3280 c0 -5 5 -10 10 -10 6 0 10 5 10 10 0 6 -4 10 -10 10 -5 0
-10 -4 -10 -10z"/>
<path d="M3580 3266 c0 -8 4 -17 9 -20 5 -4 7 3 4 14 -6 23 -13 26 -13 6z"/>
<path d="M3220 3217 c0 -18 28 -42 37 -33 9 8 -9 38 -25 44 -7 2 -12 -3 -12
-11z"/>
<path d="M3177 3203 c-4 -6 0 -19 9 -27 18 -19 31 -21 17 -3 -6 6 -12 19 -15
27 -3 9 -7 10 -11 3z"/>
<path d="M6525 3160 c3 -5 10 -10 16 -10 5 0 9 5 9 10 0 6 -7 10 -16 10 -8 0
-12 -4 -9 -10z"/>
<path d="M3566 3111 c-4 -7 -5 -15 -2 -18 9 -9 19 4 14 18 -4 11 -6 11 -12 0z"/>
<path d="M2230 3046 c0 -34 21 -56 54 -56 14 0 26 2 26 5 0 6 -35 42 -63 64
-15 12 -17 11 -17 -13z"/>
<path d="M3305 3060 c-3 -5 -1 -10 4 -10 6 0 11 5 11 10 0 6 -2 10 -4 10 -3 0
-8 -4 -11 -10z"/>
<path d="M3530 3045 c1 -26 2 -28 11 -12 8 14 8 22 0 30 -8 8 -11 3 -11 -18z"/>
<path d="M3301 3024 c0 -11 3 -14 6 -6 3 7 2 16 -1 19 -3 4 -6 -2 -5 -13z"/>
<path d="M3230 3020 c0 -5 5 -10 10 -10 6 0 10 5 10 10 0 6 -4 10 -10 10 -5 0
-10 -4 -10 -10z"/>
<path d="M595 2878 c-4 -10 -4 -26 0 -35 8 -17 8 -17 12 0 3 9 3 25 0 35 -4
16 -4 16 -12 0z"/>
<path d="M568 2731 c-12 -11 -18 -33 -18 -61 0 -43 18 -110 30 -110 4 0 7 43
8 95 1 52 1 95 0 94 -2 0 -11 -8 -20 -18z"/>
<path d="M2096 2609 c-9 -22 -21 -37 -26 -34 -6 3 -10 1 -10 -4 0 -6 11 -11
25 -11 20 0 25 5 25 26 0 14 4 23 10 19 6 -3 10 3 10 14 0 36 -18 31 -34 -10z"/>
<path d="M2013 2565 c-3 -9 -3 -19 1 -22 3 -4 6 -1 6 5 0 7 7 12 15 12 8 0 15
5 15 10 0 16 -30 12 -37 -5z"/>
<path d="M601 2484 c0 -11 3 -14 6 -6 3 7 2 16 -1 19 -3 4 -6 -2 -5 -13z"/>
<path d="M511 2443 c1 -10 5 -31 9 -48 7 -27 8 -25 9 18 0 26 -3 47 -9 47 -5
0 -9 -8 -9 -17z"/>
<path d="M2623 2445 c-11 -8 -23 -12 -25 -9 -3 2 -16 0 -29 -5 -21 -8 -18 -10
22 -10 41 -1 99 16 99 29 0 12 -48 8 -67 -5z"/>
<path d="M651 2374 c0 -11 3 -14 6 -6 3 7 2 16 -1 19 -3 4 -6 -2 -5 -13z"/>
<path d="M2235 1791 c3 -6 -3 -14 -12 -20 -10 -6 -13 -11 -7 -11 12 0 34 20
34 32 0 4 -5 8 -11 8 -5 0 -8 -4 -4 -9z"/>
<path d="M2210 1656 c0 -8 5 -18 10 -21 6 -3 10 3 10 14 0 12 -4 21 -10 21 -5
0 -10 -6 -10 -14z"/>
<path d="M884 1221 c-5 -5 -26 -19 -46 -30 -117 -65 -245 -145 -275 -171 -12
-10 -35 -26 -50 -34 -15 -8 -39 -27 -52 -41 -13 -14 -29 -25 -37 -25 -8 0 -14
-3 -14 -7 0 -9 -48 -33 -65 -33 -6 0 -17 -9 -25 -20 -8 -11 -20 -20 -27 -20
-7 0 -13 -4 -13 -10 0 -6 93 -10 258 -10 l259 0 12 43 c7 23 17 56 22 73 5 17
9 42 9 56 0 13 3 28 7 32 14 14 33 83 33 124 0 23 4 42 9 42 12 0 22 28 12 34
-4 3 -12 1 -17 -3z"/>
<path d="M1217 1073 c-10 -9 -9 -23 2 -23 5 0 11 7 15 15 5 15 -5 20 -17 8z"/>
<path d="M1563 1030 c-25 -20 -14 -50 17 -50 14 0 20 -7 20 -21 0 -16 4 -19
18 -14 9 4 27 10 40 12 20 5 22 2 22 -35 0 -74 10 -102 36 -102 29 0 29 1 4
52 -11 23 -20 53 -20 66 0 27 -35 82 -53 82 -7 0 -24 6 -38 14 -22 11 -28 11
-46 -4z"/>
<path d="M1196 1007 c-10 -8 -28 -12 -40 -10 -11 2 -29 -3 -39 -11 -18 -14
-18 -15 0 -40 10 -14 26 -26 36 -26 17 0 21 -9 18 -42 -3 -22 12 -23 29 -3 7
8 10 25 6 40 -5 18 -2 27 9 31 16 7 20 41 7 61 -7 10 -12 10 -26 0z"/>
<path d="M1535 950 c4 -6 11 -8 16 -5 14 9 11 15 -7 15 -8 0 -12 -5 -9 -10z"/>
<path d="M989 938 c0 -7 -2 -32 -5 -55 -5 -35 -3 -43 10 -43 9 0 16 5 16 10 0
14 37 12 43 -2 3 -7 6 1 6 18 1 25 -7 37 -34 58 -22 17 -35 22 -36 14z"/>
<path d="M1515 910 c4 -6 -10 -10 -34 -10 -23 0 -41 -4 -41 -8 0 -5 -11 -15
-25 -22 -24 -13 -35 -50 -15 -50 6 0 10 5 10 10 0 6 9 10 20 10 11 0 20 -4 20
-10 0 -5 13 -10 29 -10 21 0 32 6 36 20 3 11 13 20 21 20 18 0 18 27 0 46 -17
16 -30 19 -21 4z"/>
<path d="M1880 891 c0 -5 9 -11 20 -14 23 -6 27 -37 5 -37 -8 0 -15 -4 -15
-10 0 -15 28 -12 55 6 21 13 22 19 13 40 -9 18 -19 24 -45 24 -18 0 -33 -4
-33 -9z"/>
<path d="M1310 830 c0 -5 9 -10 20 -10 11 0 20 5 20 10 0 6 -9 10 -20 10 -11
0 -20 -4 -20 -10z"/>
</g>
</svg>
